<svg width="62" height="64" viewBox="0 0 62 64" fill="none" xmlns="http://www.w3.org/2000/svg">
<path d="M49.0988 34.1743C50.5476 34.2325 51.7269 34.2869 53.0079 34.9814C49.4448 53.068 33.8582 55.6229 26.5102 54.6395C25.9659 52.4884 25.4844 52.5711 23.9424 51.0057C20.3026 47.0942 23.9424 41.7528 23.9424 41.7528C23.9424 41.7528 27.6233 37.2735 30.7696 39.1872C30.7696 39.1872 35.9723 30.7755 44.8765 34.9814C46.2069 34.3919 47.65 34.116 49.0988 34.1743Z" fill="#FE9F1E" stroke="white" stroke-miterlimit="10"/>
<path d="M44.2205 38.1414C41.7322 38.0152 33.9385 41.2537 33.9385 41.2537C33.9385 39.573 36.3675 37.3006 37.582 36.3745C37.0989 34.9611 38.9137 30.2621 39.8815 28.0894C39.8815 28.0894 43.9943 28.4679 42.1024 29.4352C40.2105 30.4026 40.4161 36.6062 40.4161 36.6062C40.4161 36.6062 46.7087 38.2675 44.2205 38.1414Z" fill="#847F29" stroke="white" stroke-miterlimit="10"/>
<path d="M41.6967 51.7444C52.6088 45.3588 56.5436 31.4058 50.4854 20.5794C44.4272 9.75313 30.6701 6.15322 19.7581 12.5389C8.84599 18.9245 4.91114 32.8775 10.9693 43.7039C17.0275 54.5302 30.7847 58.1301 41.6967 51.7444Z" stroke="white" stroke-miterlimit="10"/>
</svg>
