<svg width="62" height="63" viewBox="0 0 62 63" fill="none" xmlns="http://www.w3.org/2000/svg">
<path d="M49.0993 33.1967C50.5481 33.2549 51.7274 33.3093 53.0084 34.0038C49.4453 52.0895 33.8587 54.6443 26.5107 53.661C25.9664 51.5099 25.4849 51.5927 23.9429 50.0273C20.3031 46.1161 23.9429 40.7749 23.9429 40.7749C23.9429 40.7749 27.6238 36.2958 30.7701 38.2094C30.7701 38.2094 35.9728 29.7981 44.877 34.0038C46.2074 33.4143 47.6505 33.1385 49.0993 33.1967Z" fill="#FE9F1E" stroke="black" stroke-miterlimit="10"/>
<path d="M44.2215 37.1634C41.7332 37.0372 33.9395 40.2756 33.9395 40.2756C33.9395 38.5949 36.3685 36.3226 37.5829 35.3966C37.0998 33.9832 38.9147 29.2845 39.8824 27.1118C39.8824 27.1118 43.9953 27.4903 42.1034 28.4576C40.2115 29.4249 40.4171 35.6283 40.4171 35.6283C40.4171 35.6283 46.7097 37.2895 44.2215 37.1634Z" fill="#847F29" stroke="black" stroke-miterlimit="10"/>
<path d="M41.6967 50.7656C52.6088 44.3803 56.5436 30.4279 50.4854 19.6021C44.4272 8.77625 30.6701 5.17652 19.7581 11.5619C8.84599 17.9472 4.91114 31.8996 10.9693 42.7254C17.0275 53.5512 30.7847 57.1509 41.6967 50.7656Z" stroke="black" stroke-miterlimit="10"/>
</svg>
