<svg width="297" height="176" viewBox="0 0 297 176" fill="none" xmlns="http://www.w3.org/2000/svg">
<path d="M2.06445 74.6242C28.7311 55.9575 84.5645 39.3242 94.5645 122.124" stroke="white" stroke-width="4"/>
<path d="M94.5645 122.124C100.898 95.4573 117.764 50.6239 134.564 84.6239C139.564 93.2906 149.064 123.624 147.064 175.624" stroke="white" stroke-width="4"/>
<path d="M196.564 73.624C199.898 34.124 214.564 -31.076 246.564 24.124" stroke="white" stroke-width="4"/>
<path d="M146.064 132.624C150.826 97.6196 167.493 36.6118 196.064 72.6164" stroke="white" stroke-width="4"/>
<path d="M246.064 22.6239C253.898 9.2906 274.664 -9.37607 295.064 22.6239" stroke="white" stroke-width="4"/>
<path d="M2.56445 74.6242C15.7311 43.1242 62.7645 -12.7758 145.564 15.6242C158.564 19.6242 186.964 37.0242 196.564 74.6242" stroke="white" stroke-width="4"/>
</svg>
