<svg width="132" height="205" viewBox="0 0 132 205" fill="none" xmlns="http://www.w3.org/2000/svg">
<path d="M0.0644531 62.124V0.124023H16.5645V52.624C17.3645 67.424 26.2311 74.4574 30.5645 76.124C36.1645 78.924 67.2311 84.624 82.0645 87.124C118.064 88.724 128.731 101.457 129.064 107.624C135.464 124.424 125.064 139.124 112.064 141.624H86.5645C68.9645 139.624 63.5645 149.791 63.0645 155.124V204.124H45.0645V152.624C45.4645 135.424 62.8978 125.124 71.5645 122.124H108.564C116.964 114.524 106.731 109.291 100.564 107.624L37.0645 96.124C11.0645 93.724 1.56445 72.4574 0.0644531 62.124Z" fill="black"/>
</svg>
