<svg width="54" height="54" viewBox="0 0 54 54" fill="none" xmlns="http://www.w3.org/2000/svg">
<circle cx="27" cy="27" r="27" fill="black"/>
<path d="M15 21.1934L21.4014 22.0321C22.1251 20.1869 22.7699 19.0267 23.0018 18.6772C24.5 16 30.1687 15.3923 31.769 18.6772C33.3694 21.9622 30.934 23.9192 26.8288 26.7149C23.5445 28.9515 23.4193 33.844 23.7672 36.0107H30.1687C29.8903 32.8795 31.1196 31.3046 31.769 30.9085C37.2798 26.7149 38.36 23.9291 38.5184 23.0805C39 20.5 39.9796 12.0374 28.0116 11.0589C18.4373 10.2761 15.3479 17.4891 15 21.1934Z" fill="#FFEA64"/>
<path d="M29.6816 37.5483H24.3238V43H29.6816V37.5483Z" fill="#FFEA64"/>
<path d="M15 21.1934L21.4014 22.0321C22.1251 20.1869 22.7699 19.0267 23.0018 18.6772C24.5 16 30.1687 15.3923 31.769 18.6772C33.3694 21.9622 30.934 23.9192 26.8288 26.7149C23.5445 28.9515 23.4193 33.844 23.7672 36.0107H30.1687C29.8903 32.8795 31.1196 31.3046 31.769 30.9085C37.2798 26.7149 38.36 23.9291 38.5184 23.0805C39 20.5 39.9796 12.0374 28.0116 11.0589C18.4373 10.2761 15.3479 17.4891 15 21.1934Z" stroke="black"/>
<path d="M29.6816 37.5483H24.3238V43H29.6816V37.5483Z" stroke="black"/>
</svg>
