<svg width="140" height="467" viewBox="0 0 140 467" fill="none" xmlns="http://www.w3.org/2000/svg">
<path d="M123.378 79.5743V28.0742L138.878 24.5742V81.0743C138.478 102.674 121.045 115.408 112.378 119.074C116.778 123.474 117.545 130.241 117.378 133.074C116.598 150.651 99.3866 158.398 90.8782 160.074V176.074V466.074H74.3782V160.074C27.5782 148.074 29.2115 124.074 35.8782 113.574C31.4782 112.774 21.7115 107.241 17.3781 104.574C-12.6219 80.5743 4.87815 64.5742 17.3781 59.5742C46.3136 53.45 87.2115 88.4077 103.378 104.574C112.178 103.374 122.168 90.7473 123.378 79.5743Z" fill="#20315A" stroke="black"/>
<path d="M60.3901 105.155C38.7901 101.555 15.8136 87.4506 18.8136 79.5131C21.2288 73.4868 32.9255 66.5839 60.3901 87.1822L90.2404 106.438C82.568 106.929 65.8565 107.358 60.3901 105.155Z" fill="#F3F6FF" stroke="black"/>
<path d="M74.3138 106.79C78.91 106.79 91.5386 107.386 103.601 104.535" stroke="black"/>
<path d="M59.5148 41.7724C61.4821 -1.60155 101.181 -0.560886 115.515 2.77245V17.7725C86.7148 17.7725 76.7073 15.2786 74.5148 53.2725V290.772C80.3896 338.673 104.583 333.036 122.015 335.619V348.272C74.8148 345.872 59.5148 321.291 59.5148 300.772V41.7724Z" fill="#58A859" stroke="black"/>
<path d="M59.4726 121.978C54.346 120.44 43.6435 117.786 36.3683 113.648" stroke="black"/>
<mask id="mask0" mask-type="alpha" maskUnits="userSpaceOnUse" x="59" y="5" width="64" height="349">
<path d="M59.5148 46.0361C69.9148 6.83606 101.181 3.70273 115.515 7.03606V22.0361C86.7148 22.0361 76.1814 45.7028 74.5148 57.5361V295.036C79.7148 331.836 108.348 336.369 122.015 334.036V352.536C74.8148 350.136 60.6814 319.869 59.5148 305.036V46.0361Z" fill="#58A859" stroke="black"/>
</mask>
<g mask="url(#mask0)">
<path d="M101.95 104.912C69.9502 108.912 58.2836 105.579 56.4502 103.412C50.4502 104.079 40.8502 107.712 50.4502 116.912C60.0502 126.112 84.8572 126.117 96.8572 124.784L101.95 122.412V104.912Z" fill="#20315A" stroke="black"/>
<path d="M87.4988 161.829C78.244 161.057 63.3326 156.571 57.1627 154.579L53.4557 140.682L80.3921 147.435L87.4988 161.829Z" fill="#20315A" stroke="black"/>
</g>
<path d="M47.0006 118.153C37.1512 131.764 51.403 139.941 59.7602 142.329L59.4934 122.108L47.0006 118.153Z" fill="#F3F6FF" stroke="black"/>
<path d="M98.3137 123.95C95.1137 125.55 80.8431 125.754 74.6764 125.087V146.022C79.6358 147.432 91.4064 149.292 98.8137 145.45C107.214 139.85 101.814 128.284 98.3137 123.95Z" fill="#F3F6FF" stroke="black"/>
</svg>
