<svg width="266" height="288" viewBox="0 0 266 288" fill="none" xmlns="http://www.w3.org/2000/svg">
<path d="M13.0645 1.46276H234.957C273.564 -1.87609 266.892 12.2099 258.564 21.124C218.195 109.929 240.62 219.27 257.44 263.841C270.63 287.253 255.275 288.06 245.949 285.537H15.6221C-7.16073 291.188 1.79924 273.427 9.12708 263.841C45.8995 149.605 20.4519 53.0974 3.13159 19.1228C-1.6648 -2.67473 4.56445 1.46276 13.0645 1.46276Z" fill="#FFEA64" stroke="black"/>
<circle cx="211" cy="233.45" r="21.0697" stroke="black"/>
<path d="M205.133 247.813C205.549 248.1 207.365 252.413 208.311 254.321C225.337 256.267 232.14 241.24 232.14 234.634C230.125 231.213 225.225 232.919 223.599 234.344C217.14 230.443 212.567 235.117 211.089 237.942C200.696 237.502 204.613 247.455 205.133 247.813Z" fill="#EB9237" stroke="black"/>
<path d="M213.278 241.402C213.621 241.23 219.66 239.227 222.638 238.247C223.108 237.39 220.658 236.822 219.375 236.645L220.123 231.189C222.987 229.485 220.14 228.802 218.358 228.674C216.733 230.343 216.184 235.074 216.113 237.232C212.101 239.21 212.85 241.617 213.278 241.402Z" fill="#847F29" stroke="black"/>
</svg>
