<svg width="309" height="366" viewBox="0 0 309 366" fill="none" xmlns="http://www.w3.org/2000/svg">
<rect x="126.436" y="241.876" width="154" height="35" fill="#F3CDB1" stroke="black"/>
<rect x="126.5" y="272.5" width="181" height="33" fill="#8A9DCA" stroke="black"/>
<rect x="65.5" y="306.5" width="181" height="59" fill="#A5A6A8" stroke="black"/>
<path d="M93.5 334.5C93.5 318.484 106.484 305.5 122.5 305.5H307.5V365.5H93.5V334.5Z" fill="#C2C2C4" stroke="black"/>
<circle cx="284.5" cy="289.5" r="11" fill="#0F0909" stroke="black"/>
<circle cx="122.436" cy="335.876" r="11.5" fill="#0F0909"/>
<rect y="47" width="137" height="142" fill="#461B44"/>
<path d="M306.926 236.826C310.926 225.226 296.593 223.659 288.926 224.326L204.926 54.3259C188.526 8.72593 150.093 0.325922 132.926 1.82592H61.9263C44.3263 -1.37408 33.5929 5.49259 30.4262 9.32592C14.8262 28.5259 31.2595 43.6592 41.4262 48.8258H119.926C137.926 47.2258 136.093 59.8258 132.926 66.3258C102.926 103.126 120.426 141.326 132.926 155.826L97.4354 189.376H78.9354L103.926 224.326C98.9262 225.993 89.5262 230.826 91.9262 236.826C94.3262 242.826 100.926 243.659 103.926 243.326H288.926C294.435 243.326 302.926 248.426 306.926 236.826Z" fill="#8B0084" stroke="black"/>
<path d="M97.5 47L10 46.5C-2 59.5 11.9999 186 15.4999 188C18.2999 189.6 69.9999 189.667 95.4999 189.5C114.7 191.9 126.167 190.5 129.5 189.5C154.3 168.7 135.5 156.5 123 153H110C134 129.8 114 119 101 116.5H88.4999C117.7 104.5 102.333 85.8333 90.9999 78C114.2 71.2 108.5 50.5 97.5 47Z" fill="#BA8FB8" stroke="black"/>
<path d="M110.485 152.93H40" stroke="black"/>
<path d="M89.3484 116.467H40.2104" stroke="black"/>
<path d="M91.1589 78H40.2471" stroke="black"/>
</svg>
