<svg width="309" height="366" viewBox="0 0 309 366" fill="none" xmlns="http://www.w3.org/2000/svg">
<rect x="0.385742" y="46.5684" width="137" height="142" fill="#986115"/>
<rect x="126.821" y="241.444" width="154" height="35" fill="#71513A" stroke="black"/>
<rect x="126.886" y="272.068" width="181" height="33" fill="#20315A" stroke="black"/>
<rect x="65.8857" y="306.068" width="181" height="59" fill="#561353" stroke="black"/>
<path d="M122.886 305.068H307.886V365.068H93.8857V334.068C93.8857 318.052 106.869 305.068 122.886 305.068Z" fill="#8B0084" stroke="black"/>
<circle cx="284.886" cy="289.068" r="11" fill="#F3F6FF" stroke="black"/>
<circle cx="122.321" cy="335.944" r="11.5" fill="#0F0909"/>
<path d="M307.312 236.394C311.312 224.794 296.979 223.228 289.312 223.894L205.312 53.8943C188.912 8.29429 150.479 -0.105719 133.312 1.39428H62.312C44.712 -1.80572 33.9786 5.06095 30.8119 8.89428C15.2119 28.0943 31.6453 43.2276 41.8119 48.3942H120.312C138.312 46.7942 136.479 59.3942 133.312 65.8942C103.312 102.694 121.137 142.644 133.637 157.144L97.8212 188.944H79.3212L104.312 223.894C99.3119 225.561 89.9119 230.394 92.3119 236.394C94.7119 242.394 101.312 243.228 104.312 242.894H289.312C294.821 242.894 303.312 247.994 307.312 236.394Z" fill="#FF9400" stroke="black"/>
<path d="M97.8856 46.5684H15.8854C5.4306 121.245 21.3958 187.068 24.8958 189.068C27.6958 190.668 70.3855 189.235 95.8855 189.068C115.085 191.468 126.552 190.068 129.885 189.068C154.685 168.268 135.885 156.068 123.385 152.568H110.385C134.385 129.368 114.385 118.568 101.385 116.068H88.8855C118.085 104.068 102.719 85.4017 91.3855 77.5684C114.585 70.7684 108.886 50.0684 97.8856 46.5684Z" fill="#F9D29C" stroke="black"/>
<path d="M122.321 323.944L125.015 332.236H133.734L126.681 337.361L129.375 345.653L122.321 340.528L115.268 345.653L117.962 337.361L110.909 332.236H119.627L122.321 323.944Z" fill="#8B0084"/>
<path d="M110.641 152.536H40.1553" stroke="black"/>
<path d="M89.5037 116.073H40.3657" stroke="black"/>
<path d="M91.3142 77.6064H40.4023" stroke="black"/>
</svg>
