<svg width="137" height="49" viewBox="0 0 137 49" fill="none" xmlns="http://www.w3.org/2000/svg">
<path d="M0.726625 2.73366C0.82754 2.74769 0.920115 2.80029 0.986903 2.88152C1.05369 2.96276 1.09008 3.06703 1.08921 3.17468C0.933611 3.76218 0.845353 4.36733 0.826336 4.97712V5.30309C0.780338 5.99041 0.969157 6.67235 1.35844 7.22485C1.74772 7.77735 2.31159 8.16367 2.94746 8.31354C5.65476 8.63312 7.29244 9.05177 7.86049 9.56949C8.50308 9.93648 9.06766 10.439 9.51931 11.046C9.95204 11.7628 10.2191 12.5773 10.2989 13.4236C10.3064 13.4218 10.3142 13.422 10.3216 13.4243C10.329 13.4265 10.3357 13.4307 10.3412 13.4364C10.3466 13.4422 10.3506 13.4493 10.3527 13.4571C10.3548 13.465 10.355 13.4732 10.3533 13.4812V14.3824C10.2409 14.6598 10.1706 14.9543 10.1448 15.2548C10.0496 15.3679 9.92241 15.4452 9.78219 15.4754C9.62935 15.4143 9.50122 15.2991 9.4196 15.1494C9.48608 14.5102 9.51931 14.1075 9.51931 13.9414C9.51931 11.3847 7.933 9.8699 4.76038 9.39692C3.71144 9.34544 2.67844 9.10552 1.70561 8.68745C1.16462 8.29314 0.725373 7.7621 0.427761 7.14259C0.130148 6.52308 -0.0163919 5.83474 0.00145538 5.1401C0.104188 3.53581 0.345911 2.73366 0.726625 2.73366ZM4.29809 0.00123842L8.15962 0.00123842C8.46782 0.109896 8.62192 0.272882 8.62192 0.490197V0.605247C8.62192 0.605247 8.53127 0.739471 8.35904 0.883282L4.706 0.883282C4.05041 0.884401 3.4035 1.04187 2.8134 1.34398C2.22331 1.64608 1.70522 2.08504 1.2977 2.62819H1.1436C1.09422 2.63639 1.0437 2.63212 0.996175 2.61574C0.948648 2.59937 0.905451 2.57135 0.870106 2.53396C0.834761 2.49658 0.808267 2.45089 0.792785 2.40062C0.777302 2.35035 0.773269 2.29693 0.781013 2.2447C0.865616 1.73976 1.48503 1.15493 2.63926 0.490197C3.16171 0.299124 3.69841 0.154805 4.2437 0.058763C4.24196 0.0508347 4.24216 0.0425691 4.24428 0.0347448C4.2464 0.0269205 4.25036 0.0197953 4.2558 0.0140405C4.26125 0.00828566 4.26798 0.00409076 4.27538 0.00185102C4.28278 -0.000388716 4.29059 -0.000599537 4.29809 0.00123842V0.00123842ZM9.47399 15.6479C9.52337 15.6397 9.57389 15.644 9.62141 15.6604C9.66894 15.6768 9.71214 15.7048 9.74748 15.7422C9.78283 15.7795 9.80932 15.8252 9.8248 15.8755C9.84029 15.9258 9.84432 15.9792 9.83658 16.0314V16.1944C9.32961 17.0264 8.6202 17.6987 7.78283 18.1407C6.94547 18.5827 6.01103 18.7781 5.07765 18.7063H1.49712C1.09223 18.7063 0.850509 18.5977 0.771949 18.3803V18.2749C0.771949 17.9809 0.944176 17.8339 1.28863 17.8339H5.63965C6.37635 17.8272 7.09944 17.6233 7.74143 17.241C8.38341 16.8587 8.92335 16.3107 9.31083 15.6479H9.47399Z" fill="black"/>
<path d="M21.5679 0.166161H21.8761L30.0978 8.79488L38.3195 0.166161H38.4736C38.5229 0.15797 38.5734 0.162236 38.621 0.178612C38.6685 0.194987 38.7117 0.223009 38.747 0.260393C38.7824 0.297777 38.8089 0.343465 38.8244 0.393734C38.8399 0.444003 38.8439 0.497429 38.8361 0.54966C38.8361 0.760584 38.3889 1.28789 37.4946 2.13159C32.7265 7.24491 30.3093 9.80156 30.2428 9.80156L30.1431 9.85909C29.9437 9.85909 28.8046 8.69261 26.7257 6.35966C24.8412 4.54166 23.047 2.6216 21.3504 0.607185C21.3866 0.338736 21.4591 0.191728 21.5679 0.166161ZM21.7583 1.47964C21.9111 1.54073 22.0392 1.65591 22.1209 1.80562V18.2769C22.1303 18.337 22.126 18.3987 22.1084 18.4568C22.0908 18.5148 22.0603 18.5676 22.0195 18.6107C21.9788 18.6539 21.9289 18.6861 21.874 18.7047C21.8191 18.7233 21.7608 18.7279 21.7039 18.7179C21.4863 18.7179 21.3655 18.5709 21.3413 18.2769V1.80562C21.4924 1.5883 21.6314 1.47964 21.7583 1.47964ZM38.5189 1.47964C38.6216 1.47964 38.7606 1.62665 38.9359 1.92067V18.1618C38.8935 18.5262 38.7394 18.7083 38.4736 18.7083C38.2077 18.7083 38.0868 18.5613 38.111 18.2673V1.92067C38.1291 1.62665 38.2681 1.47964 38.5279 1.47964H38.5189Z" fill="black"/>
<path d="M21.5679 2.39956H21.8761L30.0978 11.0283L38.3195 2.39956H38.4736C38.5229 2.39137 38.5734 2.39563 38.621 2.41201C38.6685 2.42839 38.7117 2.45641 38.747 2.49379C38.7824 2.53118 38.8089 2.57686 38.8244 2.62713C38.8399 2.6774 38.8439 2.73083 38.8361 2.78306C38.8361 2.99398 38.3889 3.52129 37.4946 4.36499C32.7265 9.4783 30.3093 12.035 30.2428 12.035L30.1431 12.0925C29.9437 12.0925 28.8046 10.926 26.7257 8.59306C24.8412 6.77506 23.047 4.855 21.3504 2.84058C21.3866 2.57213 21.4591 2.42513 21.5679 2.39956ZM21.7583 3.71304C21.9111 3.77413 22.0392 3.88931 22.1209 4.03902V20.5103C22.1303 20.5704 22.126 20.6321 22.1084 20.6902C22.0908 20.7482 22.0603 20.801 22.0195 20.8441C21.9788 20.8873 21.9289 20.9195 21.874 20.9381C21.8191 20.9567 21.7608 20.9613 21.7039 20.9513C21.4863 20.9513 21.3655 20.8043 21.3413 20.5103V4.03902C21.4924 3.8217 21.6314 3.71304 21.7583 3.71304ZM38.5189 3.71304C38.6216 3.71304 38.7606 3.86005 38.9359 4.15407V20.3952C38.8935 20.7596 38.7394 20.9417 38.4736 20.9417C38.2077 20.9417 38.0868 20.7947 38.111 20.5007V4.15407C38.1291 3.86005 38.2681 3.71304 38.5279 3.71304H38.5189Z" fill="black"/>
<path d="M44.4199 0.109461C44.577 0.109461 44.716 0.256468 44.8368 0.550483C44.8006 3.04961 44.7824 4.90957 44.7824 6.13038V18.4407C44.7477 18.5262 44.6892 18.5985 44.6148 18.6481C44.5403 18.6978 44.4534 18.7224 44.3655 18.7187C44.2204 18.6803 44.0814 18.5174 43.9485 18.2297V0.608008C43.9856 0.492191 44.0474 0.386968 44.1291 0.300507C44.2109 0.214045 44.3103 0.148672 44.4199 0.109461V0.109461ZM45.7342 0.0615234L49.6683 0.0615234C50.0522 0.202219 50.451 0.29238 50.8558 0.329972C52.0006 0.681477 52.9741 1.48459 53.5752 2.57343C53.861 3.30684 54.0354 4.08342 54.0919 4.87442V5.09493C54.0575 6.14967 53.7434 7.17292 53.1854 8.04786C52.7091 8.62324 52.1204 9.08239 51.46 9.39359C50.7995 9.70479 50.0831 9.86062 49.3601 9.8503H45.7886C45.4804 9.79917 45.3263 9.65216 45.3263 9.40928C45.3841 9.24762 45.493 9.11211 45.6345 9.02578H49.2604C50.1444 9.12963 51.0337 8.88616 51.7591 8.34169C52.4845 7.79722 52.9953 6.98974 53.1945 6.07285C53.2617 5.71289 53.2951 5.34679 53.2942 4.97988C53.3556 4.12885 53.1362 3.28163 52.6734 2.58241C52.2107 1.8832 51.5331 1.37521 50.7561 1.1449C50.2443 1.02375 49.7214 0.962663 49.1969 0.962743L45.7342 0.962743C45.6753 0.972423 45.615 0.966577 45.5587 0.945722C45.5024 0.924868 45.4519 0.889649 45.4115 0.843187C45.3712 0.796725 45.3423 0.740455 45.3274 0.679364C45.3126 0.618272 45.3122 0.554246 45.3263 0.492958V0.445021C45.4296 0.28288 45.5699 0.150963 45.7342 0.0615234V0.0615234Z" fill="black"/>
<path d="M59.7025 0.108398L60.0107 0.108398C60.0804 0.139273 60.1386 0.193545 60.1763 0.262846C60.214 0.332148 60.229 0.412632 60.2192 0.491893V17.893H69.8912C69.9481 17.883 70.0064 17.8875 70.0613 17.9062C70.1162 17.9248 70.1661 17.957 70.2068 18.0001C70.2476 18.0432 70.2781 18.096 70.2957 18.1541C70.3133 18.2122 70.3176 18.2738 70.3081 18.334C70.2794 18.4414 70.2192 18.5365 70.1361 18.6054C70.053 18.6743 69.9514 18.7136 69.8459 18.7175H59.9563C59.7086 18.7175 59.5182 18.5353 59.3853 18.171V0.549417C59.5303 0.255405 59.636 0.108398 59.7025 0.108398Z" fill="black"/>
<path d="M75.7112 0.00195313L86.8879 0.00195313C87.1658 0.129786 87.3048 0.292773 87.3048 0.490913C87.3048 0.689054 87.1658 0.816887 86.8879 0.874411L75.7112 0.874411C75.6543 0.884379 75.596 0.879856 75.5411 0.861218C75.4862 0.84258 75.4363 0.810364 75.3955 0.767245C75.3547 0.724125 75.3243 0.671344 75.3067 0.613282C75.289 0.555219 75.2848 0.493549 75.2942 0.433389C75.3002 0.279989 75.4392 0.136177 75.7112 0.00195313ZM75.8653 8.91829H86.7428C86.8576 8.90876 86.9725 8.93444 87.0738 8.99226C87.1751 9.05008 87.2584 9.13758 87.3139 9.24426V9.30178C87.3139 9.62776 87.0722 9.79074 86.5887 9.79074H76.0284C75.545 9.79074 75.3032 9.62776 75.3032 9.30178V9.24426C75.358 9.13914 75.44 9.05267 75.5395 8.99495C75.639 8.93723 75.752 8.91064 75.8653 8.91829V8.91829ZM75.7655 17.8346H86.8335C87.1417 17.8346 87.2958 17.9816 87.2958 18.2756C87.2958 18.5697 87.0903 18.7167 86.6794 18.7167H75.9196C75.5087 18.7167 75.3032 18.5537 75.3032 18.2277C75.3089 18.1697 75.3254 18.1134 75.3517 18.0621C75.3781 18.0108 75.4138 17.9656 75.4568 17.929C75.4998 17.8925 75.5492 17.8653 75.6022 17.8491C75.6552 17.8329 75.7107 17.828 75.7655 17.8346V17.8346Z" fill="black"/>
<path d="M75.7114 1.67969L86.8882 1.67969C87.1662 1.80752 87.3052 1.97051 87.3052 2.16865C87.3052 2.36679 87.1662 2.49462 86.8882 2.55215L75.7114 2.55215C75.6545 2.56211 75.5962 2.55759 75.5413 2.53895C75.4864 2.52031 75.4365 2.4881 75.3958 2.44498C75.355 2.40186 75.3245 2.34908 75.3069 2.29102C75.2893 2.23295 75.285 2.17128 75.2944 2.11112C75.3005 1.98329 75.4395 1.83948 75.7114 1.67969ZM75.8655 10.596H86.7432C86.8579 10.5865 86.9728 10.6122 87.0741 10.67C87.1754 10.7278 87.2588 10.8153 87.3142 10.922V10.9795C87.3142 11.3055 87.0725 11.4685 86.5891 11.4685H76.0287C75.5452 11.4685 75.3035 11.3055 75.3035 10.9795V10.9316C75.357 10.8247 75.4384 10.7362 75.5381 10.6768C75.6377 10.6173 75.7513 10.5893 75.8655 10.596V10.596ZM75.7658 19.5124H86.8338C87.142 19.5124 87.2961 19.6594 87.2961 19.9534C87.2961 20.2474 87.0907 20.3944 86.6797 20.3944H75.9199C75.509 20.3944 75.3035 20.2314 75.3035 19.9054C75.3091 19.8474 75.3256 19.7911 75.352 19.7398C75.3783 19.6886 75.414 19.6433 75.457 19.6068C75.5 19.5702 75.5495 19.543 75.6025 19.5268C75.6555 19.5106 75.711 19.5057 75.7658 19.5124V19.5124Z" fill="black"/>
<path d="M0.728342 28.88C0.829258 28.8941 0.921833 28.9467 0.988622 29.0279C1.05541 29.1092 1.0918 29.2134 1.09093 29.3211C0.93533 29.9086 0.847071 30.5137 0.828054 31.1235V31.4495C0.782055 32.1368 0.970876 32.8188 1.36016 33.3713C1.74945 33.9238 2.31332 34.3101 2.9492 34.46C5.65653 34.7795 7.29422 35.1982 7.86228 35.7159C8.50488 36.0829 9.06947 36.5854 9.52112 37.1924C9.9579 37.9177 10.2251 38.7426 10.3007 39.5989C10.3082 39.597 10.316 39.5972 10.3234 39.5995C10.3308 39.6017 10.3375 39.6059 10.343 39.6117C10.3484 39.6174 10.3524 39.6245 10.3545 39.6324C10.3566 39.6402 10.3568 39.6485 10.3551 39.6564V40.5288C10.2427 40.8063 10.1724 41.1007 10.1466 41.4013C10.0514 41.5143 9.92422 41.5917 9.784 41.6218C9.63116 41.5607 9.50303 41.4456 9.42141 41.2958C9.48789 40.6567 9.52112 40.254 9.52112 40.0878C9.52112 37.5312 7.9348 36.0163 4.76214 35.5434C3.71319 35.4919 2.68018 35.252 1.70733 34.8339C1.16635 34.4396 0.72709 33.9085 0.429474 33.289C0.131858 32.6695 -0.0146831 31.9811 0.00316438 31.2865C0.105898 29.6822 0.347624 28.88 0.728342 28.88ZM4.29984 26.1476H8.16141C8.46962 26.2563 8.62372 26.4193 8.62372 26.6366V26.742C8.62372 26.742 8.53307 26.8763 8.36084 27.0201H4.70776C4.05216 27.0212 3.40524 27.1787 2.81514 27.4808C2.22504 27.7829 1.70695 28.2218 1.29942 28.765H1.14532C1.09594 28.7732 1.04542 28.7689 0.997895 28.7525C0.950367 28.7362 0.90717 28.7082 0.871824 28.6708C0.836479 28.6334 0.809985 28.5877 0.794502 28.5374C0.77902 28.4872 0.774986 28.4337 0.78273 28.3815C0.867335 27.8829 1.48676 27.2981 2.641 26.627C3.16318 26.4327 3.69989 26.2851 4.24545 26.186C4.24653 26.1796 4.24881 26.1735 4.25216 26.1681C4.2555 26.1627 4.25985 26.1581 4.26493 26.1545C4.27 26.151 4.27572 26.1485 4.28172 26.1473C4.28772 26.1461 4.29388 26.1462 4.29984 26.1476V26.1476ZM9.4758 41.7944C9.52518 41.7862 9.5757 41.7905 9.62322 41.8068C9.67075 41.8232 9.71395 41.8512 9.74929 41.8886C9.78464 41.926 9.81113 41.9717 9.82662 42.022C9.8421 42.0722 9.84613 42.1257 9.83839 42.1779V42.3409C9.33142 43.1729 8.622 43.8452 7.78462 44.2872C6.94725 44.7292 6.01281 44.9245 5.07941 44.8528H1.49884C1.09395 44.8528 0.852227 44.7441 0.773666 44.5268V44.4214C0.773666 44.1274 0.945895 43.9803 1.29035 43.9803H5.64142C6.37813 43.9737 7.10123 43.7697 7.74322 43.3875C8.38521 43.0052 8.92515 42.4571 9.31263 41.7944H9.4758Z" fill="black"/>
<path d="M23.6529 27.0195H24.2693C25.8362 27.1163 27.3519 27.6451 28.6657 28.5535L28.7654 28.8315C28.7654 29.0489 28.6264 29.1767 28.3484 29.215C27.0682 28.3465 25.59 27.8596 24.0699 27.8057H23.8614C21.0694 27.8057 18.8577 29.2406 17.226 32.1104C16.6405 33.3118 16.33 34.6418 16.3195 35.9933C16.3192 37.4126 16.6726 38.8069 17.3442 40.0356C18.0158 41.2644 18.9818 42.2841 20.1448 42.9921C21.205 43.6741 22.4128 44.0571 23.6529 44.1042H24.1696C25.6577 44.0599 27.1059 43.5858 28.3575 42.7332H28.4119C28.4119 42.7332 28.5388 42.8291 28.6747 43.0113V43.1455C28.6747 43.5929 27.7078 44.1042 25.774 44.6795C25.2005 44.8396 24.6085 44.9138 24.0155 44.9H23.9158C20.7492 44.9 18.2654 43.3021 16.4646 40.1063C15.8774 38.8645 15.5673 37.4968 15.5581 36.1084V35.9454C15.5581 32.7496 16.9903 30.193 19.8548 28.2755C21.0212 27.5741 22.3165 27.1458 23.6529 27.0195V27.0195Z" fill="black"/>
<path d="M14.8424 0.586914H15.1053C15.1882 0.63133 15.2573 0.700268 15.3039 0.785361C15.3506 0.870454 15.3729 0.968044 15.3681 1.06629L15.3681 20.4616C15.3729 20.5599 15.3506 20.6575 15.3039 20.7426C15.2573 20.8277 15.1882 20.8966 15.1053 20.941H14.8424C14.782 20.941 14.6792 20.8004 14.5342 20.5192L14.5342 1.12381C14.536 1.01347 14.5655 0.905622 14.6196 0.811291C14.6738 0.71696 14.7507 0.639529 14.8424 0.586914Z" fill="black"/>
<path d="M16.6097 0.586914H16.8726C16.9556 0.63133 17.0246 0.700268 17.0713 0.785361C17.1179 0.870454 17.1402 0.968044 17.1355 1.06629V20.4616C17.1402 20.5599 17.1179 20.6575 17.0713 20.7426C17.0246 20.8277 16.9556 20.8966 16.8726 20.941H16.6097C16.5493 20.941 16.4465 20.8004 16.3015 20.5192V1.12381C16.3033 1.01347 16.3328 0.905622 16.387 0.811291C16.4411 0.71696 16.518 0.639529 16.6097 0.586914V0.586914Z" fill="black"/>
<path d="M34.3949 26.3682H34.6578C34.7407 26.4126 34.8098 26.4815 34.8564 26.5666C34.9031 26.6517 34.9254 26.7493 34.9206 26.8475V46.2429C34.9254 46.3411 34.9031 46.4387 34.8564 46.5238C34.8098 46.6089 34.7407 46.6778 34.6578 46.7223H34.3949C34.3344 46.7223 34.2317 46.5816 34.0867 46.3004V26.9051C34.0885 26.7947 34.118 26.6869 34.1721 26.5925C34.2263 26.4982 34.3032 26.4208 34.3949 26.3682V26.3682Z" fill="black"/>
<path d="M36.1532 26.3682H36.416C36.499 26.4126 36.5681 26.4815 36.6147 26.5666C36.6614 26.6517 36.6837 26.7493 36.6789 26.8475V46.2429C36.6837 46.3411 36.6614 46.4387 36.6147 46.5238C36.5681 46.6089 36.499 46.6778 36.416 46.7223H36.1532C36.0927 46.7223 35.99 46.5816 35.845 46.3004V26.9051C35.8468 26.7947 35.8763 26.6869 35.9304 26.5925C35.9846 26.4982 36.0615 26.4208 36.1532 26.3682V26.3682Z" fill="black"/>
<path d="M40.8579 26.1465H52.0255C52.3035 26.2743 52.4425 26.4373 52.4425 26.6354C52.4425 26.8336 52.3035 26.9614 52.0255 27.0189H40.8579C40.801 27.0289 40.7427 27.0244 40.6878 27.0057C40.6329 26.9871 40.583 26.9549 40.5422 26.9118C40.5015 26.8687 40.471 26.8159 40.4534 26.7578C40.4358 26.6997 40.4315 26.6381 40.4409 26.5779C40.4409 26.4245 40.5799 26.2807 40.8579 26.1465ZM41.012 35.0628H51.8896C52.0043 35.0533 52.1192 35.079 52.2205 35.1368C52.3218 35.1946 52.4052 35.2821 52.4606 35.3888V35.4751C52.4606 35.801 52.2189 35.964 51.7355 35.964H41.1661C40.6826 35.964 40.4409 35.801 40.4409 35.4751V35.4176C40.4925 35.3055 40.5742 35.2121 40.6758 35.149C40.7774 35.0859 40.8943 35.0559 41.012 35.0628ZM40.9123 43.9791H51.9711C52.2793 43.9791 52.4334 44.1262 52.4334 44.4202C52.4334 44.7142 52.228 44.8612 51.817 44.8612H41.0573C40.6464 44.8612 40.4409 44.6982 40.4409 44.3722C40.4465 44.3142 40.463 44.2579 40.4894 44.2066C40.5157 44.1554 40.5514 44.1101 40.5944 44.0736C40.6374 44.037 40.6869 44.0098 40.7399 43.9936C40.7929 43.9774 40.8484 43.9725 40.9032 43.9791H40.9123Z" fill="black"/>
<path d="M40.8574 28.0166H52.025C52.303 28.1444 52.442 28.3074 52.442 28.5056C52.442 28.7037 52.303 28.8315 52.025 28.8891H40.8574C40.8005 28.899 40.7422 28.8945 40.6873 28.8759C40.6324 28.8572 40.5825 28.825 40.5417 28.7819C40.501 28.7388 40.4705 28.686 40.4529 28.6279C40.4353 28.5699 40.431 28.5082 40.4404 28.448C40.4404 28.2946 40.5794 28.1508 40.8574 28.0166ZM41.0115 36.9329H51.8891C52.0038 36.9234 52.1187 36.949 52.22 37.0069C52.3213 37.0647 52.4047 37.1522 52.4601 37.2589V37.3164C52.4601 37.6423 52.2184 37.8053 51.735 37.8053H41.1656C40.6821 37.8053 40.4404 37.6423 40.4404 37.3164V37.2589C40.4959 37.1522 40.5793 37.0647 40.6805 37.0069C40.7818 36.949 40.8967 36.9234 41.0115 36.9329V36.9329ZM40.9118 45.8492H51.9706C52.2788 45.8492 52.4329 45.9962 52.4329 46.2902C52.4329 46.5842 52.2275 46.7312 51.8165 46.7312H41.0568C40.6459 46.7312 40.4404 46.5682 40.4404 46.2422C40.4461 46.1842 40.4625 46.1279 40.4889 46.0766C40.5152 46.0254 40.551 45.9801 40.594 45.9436C40.637 45.907 40.6864 45.8799 40.7394 45.8636C40.7924 45.8474 40.8479 45.8425 40.9027 45.8492H40.9118Z" fill="black"/>
<path d="M57.3368 26.2529C58.0067 26.823 58.5826 27.5066 59.041 28.2759L71.097 44.2486C71.1335 44.3156 71.1523 44.3918 71.1514 44.4691C71.0427 44.728 71.2058 44.728 71.0427 44.728C70.8795 44.728 70.3991 44.0568 69.5651 42.868L57.6994 27.8061V44.5842C57.6647 44.6697 57.6062 44.742 57.5318 44.7916C57.4573 44.8413 57.3704 44.8659 57.2825 44.8622C57.1374 44.8238 56.9984 44.6609 56.8655 44.3732V26.7515C56.898 26.6432 56.952 26.5436 57.0239 26.4592C57.0958 26.3749 57.184 26.3078 57.2825 26.2625L57.3368 26.2529ZM70.8342 26.3105C70.9259 26.3348 71.0068 26.3921 71.063 26.4725C71.1193 26.553 71.1473 26.6516 71.1424 26.7515V42.3407C71.1424 42.3407 71.0517 42.4749 70.8795 42.6187H70.7798C70.5018 42.6187 70.3628 42.4366 70.3628 42.0722V26.8474C70.4112 26.4894 70.5713 26.3105 70.8432 26.3105H70.8342Z" fill="black"/>
<path d="M84.2047 27.0195H84.8211C86.388 27.1163 87.9037 27.6451 89.2174 28.5535L89.3171 28.8315C89.3171 29.0489 89.1782 29.1767 88.9002 29.215C87.6199 28.3465 86.1418 27.8596 84.6216 27.8057H84.4131C81.6212 27.8057 79.3973 29.2278 77.7415 32.0721C77.156 33.2734 76.8455 34.6034 76.835 35.955C76.8301 37.3826 77.1832 38.7861 77.8584 40.0224C78.5336 41.2586 79.5067 42.2834 80.6785 42.9921C81.7439 43.6773 82.9584 44.0603 84.2047 44.1042H84.7213C86.2094 44.0599 87.6577 43.5858 88.9092 42.7332H88.9636C88.9636 42.7332 89.0905 42.8291 89.2265 43.0113V43.1455C89.2265 43.5929 88.2596 44.1042 86.3258 44.6795C85.7522 44.8396 85.1603 44.9138 84.5672 44.9H84.4675C81.3009 44.9 78.8172 43.3021 77.0163 40.1063C76.4291 38.8645 76.119 37.4968 76.1099 36.1084V35.9454C76.1099 32.7496 77.5421 30.193 80.4065 28.2755C81.573 27.5741 82.8682 27.1458 84.2047 27.0195V27.0195Z" fill="black"/>
<path d="M0.728334 4.96876C0.829249 4.9828 0.921824 5.03539 0.988612 5.11663C1.0554 5.19787 1.09179 5.30214 1.09092 5.40979C0.93532 5.99729 0.847062 6.60245 0.828045 7.21224V7.53822C0.782047 8.22554 0.970866 8.90749 1.36015 9.45999C1.74943 10.0125 2.3133 10.3988 2.94917 10.5487C5.65647 10.8683 7.29415 11.2869 7.8622 11.8047C8.50479 12.1716 9.06937 12.6742 9.52102 13.2811C9.95779 14.0065 10.225 14.8314 10.3006 15.6876C10.3081 15.6858 10.3159 15.686 10.3233 15.6882C10.3307 15.6905 10.3374 15.6946 10.3429 15.7004C10.3483 15.7062 10.3523 15.7133 10.3544 15.7211C10.3565 15.7289 10.3567 15.7372 10.355 15.7451V16.6176C10.2426 16.895 10.1723 17.1895 10.1465 17.4901C10.0513 17.6031 9.92412 17.6805 9.7839 17.7106C9.63105 17.6495 9.50293 17.5343 9.42131 17.3846C9.48779 16.7454 9.52102 16.3428 9.52102 16.1766C9.52102 13.6199 7.93471 12.1051 4.76209 11.6321C3.71315 11.5806 2.68015 11.3407 1.70731 10.9226C1.16633 10.5283 0.727082 9.99725 0.42947 9.37774C0.131857 8.75822 -0.0146829 8.06987 0.00316436 7.37523C0.105897 5.77092 0.34762 4.96876 0.728334 4.96876ZM4.2998 2.23632L8.16133 2.23632C8.46953 2.34498 8.62362 2.50797 8.62362 2.72529V2.87869C8.62362 2.87869 8.53298 3.01291 8.36075 3.15672H4.70771C4.05506 3.15324 3.40999 3.30477 2.8201 3.60014C2.23021 3.8955 1.71053 4.32717 1.29941 4.8633H1.14531C1.09593 4.87149 1.04541 4.86723 0.997884 4.85085C0.950357 4.83447 0.90716 4.80645 0.871815 4.76907C0.83647 4.73168 0.809976 4.686 0.794494 4.63573C0.779011 4.58546 0.774978 4.53203 0.782722 4.4798C0.867325 3.97486 1.48674 3.39002 2.64097 2.72529C3.16315 2.53096 3.69985 2.38343 4.24541 2.28426C4.24527 2.27707 4.24667 2.26994 4.24949 2.2634C4.25231 2.25685 4.25648 2.25107 4.26171 2.24646C4.26693 2.24186 4.27307 2.23856 4.27966 2.2368C4.28625 2.23505 4.29314 2.23488 4.2998 2.23632V2.23632ZM9.4757 17.8831C9.52508 17.875 9.57559 17.8792 9.62312 17.8956C9.67065 17.912 9.71385 17.94 9.74919 17.9774C9.78454 18.0148 9.81103 18.0604 9.82651 18.1107C9.84199 18.161 9.84603 18.2144 9.83828 18.2666V18.4296C9.33132 19.2616 8.62191 19.9339 7.78454 20.3759C6.94718 20.8179 6.01274 21.0133 5.07935 20.9416H1.49883C1.09394 20.9416 0.852218 20.8329 0.773658 20.6156V20.5101C0.773658 20.2161 0.945885 20.0691 1.29034 20.0691H5.64136C6.37806 20.0625 7.10115 19.8585 7.74314 19.4762C8.38512 19.094 8.92506 18.5459 9.31254 17.8831H9.4757Z" fill="black"/>
<path d="M0.727968 30.7489C0.828883 30.763 0.921457 30.8156 0.988246 30.8968C1.05503 30.9781 1.09142 31.0823 1.09055 31.19C0.934954 31.7775 0.846696 32.3826 0.827679 32.9924V33.3184C0.781681 34.0057 0.970499 34.6877 1.35978 35.2402C1.74906 35.7927 2.31293 36.179 2.9488 36.3289C5.6561 36.6484 7.29378 37.0671 7.86183 37.5848C8.50442 37.9518 9.069 38.4543 9.52066 39.0613C9.95742 39.7866 10.2246 40.6115 10.3002 41.4677C10.3077 41.4659 10.3155 41.4661 10.3229 41.4683C10.3303 41.4706 10.3371 41.4748 10.3425 41.4805C10.3479 41.4863 10.3519 41.4934 10.354 41.5012C10.3561 41.5091 10.3563 41.5173 10.3546 41.5253V42.3977C10.2423 42.6752 10.1719 42.9696 10.1461 43.2702C10.051 43.3832 9.92375 43.4606 9.78353 43.4907C9.63069 43.4296 9.50257 43.3144 9.42095 43.1647C9.48742 42.5255 9.52066 42.1229 9.52066 41.9567C9.52066 39.4 7.93435 37.8852 4.76173 37.4122C3.71279 37.3608 2.67978 37.1208 1.70695 36.7028C1.16597 36.3084 0.726716 35.7774 0.429103 35.1579C0.131491 34.5384 -0.0150491 33.85 0.00279815 33.1554C0.105531 31.5511 0.347254 30.7489 0.727968 30.7489ZM4.29943 28.0165H8.16096C8.46916 28.1252 8.62326 28.2882 8.62326 28.5055V28.6109C8.62326 28.6109 8.53261 28.7452 8.36038 28.889H4.70734C4.04804 28.8958 3.39879 29.0607 2.80844 29.3712C2.21809 29.6818 1.70201 30.1299 1.29904 30.6818H1.14494C1.09556 30.69 1.04505 30.6858 0.997518 30.6694C0.949991 30.653 0.906794 30.625 0.871449 30.5876C0.836104 30.5502 0.80961 30.5045 0.794128 30.4543C0.778645 30.404 0.774612 30.3506 0.782356 30.2983C0.866959 29.7998 1.48638 29.215 2.6406 28.5438C3.16278 28.3495 3.69948 28.202 4.24504 28.1028C4.23969 28.099 4.23509 28.0942 4.2315 28.0885C4.22792 28.0829 4.22543 28.0765 4.22416 28.0698C4.2229 28.0632 4.2229 28.0563 4.22414 28.0496C4.22539 28.0429 4.22787 28.0366 4.23145 28.0309C4.23502 28.0252 4.23961 28.0204 4.24496 28.0166C4.25031 28.0128 4.25631 28.0102 4.26262 28.0088C4.26894 28.0075 4.27544 28.0075 4.28175 28.0088C4.28807 28.0101 4.29407 28.0127 4.29943 28.0165V28.0165ZM9.47533 43.6633C9.52471 43.6551 9.57523 43.6593 9.62276 43.6757C9.67028 43.6921 9.71348 43.7201 9.74883 43.7575C9.78417 43.7949 9.81066 43.8406 9.82615 43.8908C9.84163 43.9411 9.84566 43.9945 9.83792 44.0468V44.2097C9.33095 45.0418 8.62154 45.714 7.78418 46.156C6.94681 46.598 6.01238 46.7934 5.07899 46.7217H1.49846C1.09357 46.7217 0.851851 46.613 0.773291 46.3957V46.2902C0.773291 45.9962 0.945519 45.8492 1.28997 45.8492H5.641C6.37769 45.8426 7.10079 45.6386 7.74277 45.2563C8.38475 44.8741 8.92469 44.326 9.31217 43.6633H9.47533Z" fill="black"/>
<path d="M23.6531 28.8896H24.2695C25.8364 28.9864 27.3521 29.5152 28.6659 30.4236L28.7656 30.7017C28.7656 30.919 28.6266 31.0468 28.3486 31.0852C27.0638 30.2335 25.5859 29.7632 24.0701 29.7238H23.8616C21.0697 29.7238 18.8579 31.1395 17.2263 33.971C16.6408 35.1723 16.3303 36.5023 16.3198 37.8539C16.3194 39.2731 16.6729 40.6674 17.3445 41.8962C18.016 43.1249 18.9821 44.1447 20.1451 44.8526C21.2256 45.539 22.4565 45.9157 23.7166 45.9456H24.2333C25.7213 45.9013 27.1696 45.4272 28.4211 44.5746H28.4755C28.4755 44.5746 28.6024 44.6705 28.7384 44.8526V44.9581C28.7384 45.4055 27.7715 45.9168 25.8377 46.4921C25.2642 46.6522 24.6722 46.7264 24.0792 46.7126H23.9795C20.8129 46.7126 18.3291 45.1147 16.5283 41.9189C15.9411 40.6771 15.631 39.3094 15.6218 37.921V37.758C15.6218 34.5622 17.054 32.0055 19.9185 30.0881C21.0701 29.4159 22.3425 29.0075 23.6531 28.8896Z" fill="black"/>
<path d="M84.2052 28.8896H84.8216C86.3885 28.9864 87.9042 29.5152 89.2179 30.4236L89.3176 30.7017C89.3176 30.919 89.1787 31.0468 88.9007 31.0852C87.6159 30.2335 86.138 29.7632 84.6222 29.7238H84.4137C81.6218 29.7238 79.3979 31.1459 77.7421 33.9901C77.1566 35.1915 76.8461 36.5215 76.8356 37.873C76.8387 39.2926 77.1956 40.6862 77.8704 41.9133C78.5452 43.1403 79.5139 44.1575 80.679 44.8623C81.7595 45.5486 82.9904 45.9254 84.2505 45.9552H84.7672C86.2553 45.9109 87.7035 45.4368 88.9551 44.5842H89.0095C89.0095 44.5842 89.1364 44.6801 89.2723 44.8623V44.9677C89.2723 45.4151 88.3054 45.9265 86.3716 46.5017C85.7981 46.6618 85.2061 46.736 84.6131 46.7222H84.5134C81.3468 46.7222 78.8631 45.1243 77.0622 41.9285C76.475 40.6867 76.1649 39.319 76.1558 37.9306V37.7676C76.1558 34.5718 77.588 32.0151 80.4524 30.0977C81.6088 29.4195 82.8877 29.0078 84.2052 28.8896Z" fill="black"/>
<path d="M95.0464 26.1484H106.223C106.501 26.2763 106.64 26.4393 106.64 26.6374C106.64 26.8355 106.501 26.9634 106.223 27.0209H95.0464C94.9895 27.0309 94.9312 27.0263 94.8763 27.0077C94.8214 26.9891 94.7715 26.9568 94.7307 26.9137C94.6899 26.8706 94.6595 26.8178 94.6419 26.7598C94.6242 26.7017 94.62 26.64 94.6294 26.5799C94.6354 26.4265 94.7744 26.2827 95.0464 26.1484ZM95.2005 35.0648H106.078C106.193 35.0552 106.308 35.0809 106.409 35.1387C106.51 35.1966 106.594 35.2841 106.649 35.3907V35.477C106.649 35.803 106.407 35.966 105.924 35.966H95.3546C94.8711 35.966 94.6294 35.803 94.6294 35.477V35.4195C94.6797 35.3106 94.7586 35.2192 94.8566 35.1563C94.9547 35.0934 95.0677 35.0616 95.1823 35.0648H95.2005ZM95.1008 43.9811H106.169C106.477 43.9811 106.631 44.1281 106.631 44.4221C106.631 44.7161 106.426 44.8631 106.015 44.8631H95.2549C94.8439 44.8631 94.6385 44.7002 94.6385 44.3742C94.6441 44.3161 94.6606 44.2598 94.6869 44.2086C94.7133 44.1573 94.749 44.1121 94.792 44.0755C94.835 44.039 94.8844 44.0118 94.9374 43.9956C94.9904 43.9794 95.0459 43.9745 95.1008 43.9811V43.9811Z" fill="black"/>
<path d="M95.0464 28.0166H106.223C106.501 28.1444 106.64 28.3074 106.64 28.5056C106.64 28.7037 106.501 28.8315 106.223 28.8891H95.0464C94.9895 28.899 94.9312 28.8945 94.8763 28.8759C94.8214 28.8572 94.7715 28.825 94.7307 28.7819C94.6899 28.7388 94.6595 28.686 94.6419 28.6279C94.6242 28.5699 94.62 28.5082 94.6294 28.448C94.6354 28.2946 94.7744 28.1508 95.0464 28.0166ZM95.2005 36.933H106.078C106.193 36.9235 106.308 36.9491 106.409 37.007C106.51 37.0648 106.594 37.1523 106.649 37.259V37.3165C106.649 37.6425 106.407 37.8054 105.924 37.8054H95.3546C94.8711 37.8054 94.6294 37.6425 94.6294 37.3165V37.259C94.6835 37.1554 94.764 37.0699 94.8618 37.0123C94.9595 36.9547 95.0706 36.9272 95.1823 36.933H95.2005ZM95.1008 45.8494H106.169C106.477 45.8494 106.631 45.9964 106.631 46.2904C106.631 46.5844 106.425 46.7314 106.015 46.7314H95.2548C94.8439 46.7314 94.6385 46.5684 94.6385 46.2425C94.6441 46.1844 94.6606 46.1281 94.6869 46.0769C94.7133 46.0256 94.749 45.9804 94.792 45.9438C94.835 45.9072 94.8844 45.8801 94.9374 45.8639C94.9904 45.8476 95.0459 45.8427 95.1008 45.8494V45.8494Z" fill="black"/>
<path d="M61.2714 2.3418H61.5796C61.6493 2.37267 61.7075 2.42694 61.7451 2.49624C61.7828 2.56555 61.7979 2.64603 61.7881 2.72529V20.136H71.46C71.5169 20.126 71.5752 20.1305 71.6301 20.1492C71.685 20.1678 71.7349 20.2 71.7757 20.2431C71.8164 20.2862 71.8469 20.339 71.8645 20.3971C71.8821 20.4551 71.8864 20.5168 71.877 20.577C71.8483 20.6844 71.788 20.7795 71.7049 20.8484C71.6219 20.9173 71.5202 20.9566 71.4147 20.9605H61.5252C61.2774 20.9605 61.087 20.7783 60.9541 20.414V2.78282C61.0991 2.4888 61.2049 2.3418 61.2714 2.3418Z" fill="black"/>
<path d="M45.6708 2.34268C45.8279 2.34268 45.9669 2.48969 46.0878 2.7837C46.0515 5.28283 46.0334 7.1428 46.0334 8.3636V20.6739C45.9986 20.7594 45.9402 20.8317 45.8657 20.8814C45.7913 20.931 45.7044 20.9556 45.6164 20.9519C45.4714 20.9136 45.3324 20.7506 45.1995 20.463V2.87958C45.2319 2.77132 45.286 2.67168 45.3579 2.58734C45.4298 2.503 45.518 2.43593 45.6164 2.39062L45.6708 2.34268ZM46.9671 2.28516L50.9011 2.28516C51.2846 2.42912 51.6834 2.5225 52.0886 2.56319C53.2334 2.9147 54.2069 3.71781 54.808 4.80666C55.0844 5.54168 55.2496 6.31821 55.2974 7.10764V7.32816C55.263 8.38289 54.9489 9.40614 54.391 10.2811C53.9167 10.854 53.331 11.3117 52.6738 11.6228C52.0167 11.9339 51.3038 12.0911 50.5838 12.0835H47.0124C46.7042 12.026 46.5501 11.879 46.5501 11.6425C46.6078 11.4809 46.7167 11.3453 46.8583 11.259H50.4841C51.3638 11.3554 52.2464 11.1085 52.966 10.5646C53.6855 10.0208 54.1923 9.21754 54.391 8.30608C54.4582 7.94612 54.4916 7.58001 54.4907 7.21311C54.5521 6.36208 54.3327 5.51485 53.8699 4.81563C53.4072 4.11642 52.7296 3.60843 51.9526 3.37813C51.4451 3.24476 50.9253 3.17081 50.4026 3.15761L46.9671 3.15761C46.9102 3.16758 46.8519 3.16306 46.797 3.14442C46.7421 3.12578 46.6922 3.09357 46.6514 3.05045C46.6106 3.00733 46.5802 2.95455 46.5626 2.89648C46.5449 2.83842 46.5407 2.77675 46.5501 2.71659V2.67824C46.6559 2.51487 46.7994 2.38284 46.9671 2.29474V2.28516Z" fill="black"/>
<path d="M59.2226 28.5068C59.8925 29.0769 60.4683 29.7605 60.9267 30.5298L72.9828 46.5024C73.0193 46.5694 73.0381 46.6456 73.0372 46.7229C72.9224 46.9786 72.7834 47.1064 72.6202 47.1064C72.457 47.1064 71.9403 46.4864 71.0701 45.2464L59.5852 30.0888V46.8283C59.5504 46.9139 59.4919 46.9862 59.4175 47.0358C59.3431 47.0855 59.2561 47.1101 59.1682 47.1064C59.0232 47.068 58.8842 46.905 58.7512 46.6174V28.9958C58.7837 28.8875 58.8377 28.7879 58.9096 28.7036C58.9816 28.6192 59.0697 28.5521 59.1682 28.5068H59.2226ZM72.7199 28.5644C72.8117 28.5887 72.8926 28.646 72.9488 28.7264C73.005 28.8069 73.033 28.9055 73.0281 29.0054V44.5849C73.0281 44.5849 72.9375 44.7191 72.7652 44.8629H72.6655C72.3875 44.8629 72.2485 44.6808 72.2485 44.3165V29.0533C72.2969 28.7273 72.454 28.5644 72.7199 28.5644Z" fill="black"/>
<circle cx="125.912" cy="37.66" r="10.5278" stroke="black" stroke-width="0.7"/>
<path d="M122.953 44.9035C123.163 45.0481 124.089 47.1656 124.566 48.1276C133.505 49.0728 136.774 40.763 136.42 38.1109C135.475 36.4309 133.086 37.3922 132.266 38.1111C129.008 36.1437 126.703 38.5008 125.957 39.9252C120.716 39.7035 122.691 44.7228 122.953 44.9035Z" fill="#EB9237" stroke="black" stroke-width="0.7"/>
<path d="M127.061 41.671C127.234 41.5843 130.28 40.5741 131.781 40.0799C132.018 39.6475 130.783 39.3609 130.136 39.2717L130.513 36.5205C131.957 35.6611 130.521 35.3167 129.623 35.252C128.803 36.0935 128.526 38.4798 128.49 39.5677C126.468 40.5657 126.845 41.7794 127.061 41.671Z" fill="#847F29" stroke="black" stroke-width="0.7"/>
</svg>
