<svg width="316" height="112" viewBox="0 0 316 112" fill="none" xmlns="http://www.w3.org/2000/svg">
<path d="M26.5645 77.1238H0.0644531V58.6238C12.3095 59.9203 21.2038 59.3102 27.5648 57.7182C27.2316 57.3455 26.8985 56.9802 26.5645 56.6239C20.0386 49.663 18.2311 30.4572 19.0645 20.6238C20.5645 13.7905 27.2645 0.323804 42.0645 1.1238C60.5645 2.1238 58.5645 31.1238 56.5645 49.6238C56.2081 52.9199 55.0433 56.1118 53.3319 59.0824C57.8451 60.8933 62.6799 61.8042 67.0645 60.6238C68.737 60.1735 70.4344 59.5163 72.1151 58.6756C58.8767 46.2633 65.172 17.382 67.0645 13.1239C69.0645 8.62386 87.5645 -12.3761 100.564 13.1239C106.889 25.5297 103.857 45.4058 95.6743 59.4159C99.803 60.016 105.623 60.6238 111.564 60.6238C113.578 60.6238 115.473 60.1178 117.224 59.2794C112.632 53.1885 109.918 47.4005 109.064 45.1238C106.064 37.1238 105.564 1.1238 127.564 1.1238C145.164 1.1238 150.942 20.3084 148.564 33.6238C147.384 40.2339 143.348 49.6794 137.659 58.102C140.83 59.8628 143.887 60.5665 146.064 60.6238L285.564 64.1238C311.164 64.9238 316.231 87.7904 315.564 99.1238V111.624H297.064V99.1238C293.864 78.3238 271.731 77.4571 261.064 79.6238H257.064C251.231 80.2904 158.964 80.7238 142.564 77.1238C136.831 75.8652 131.832 73.2036 127.565 69.9113C123.343 73.6654 118.758 76.3415 114.064 77.1238C97.8836 79.8206 93.0288 76.381 86.5518 70.4825C82.922 73.4498 78.8759 75.323 74.5645 75.6238C71.3978 75.6238 74.3645 77.1238 59.5645 77.1238C51.6986 77.1238 45.9117 74.8641 41.2814 71.6513C36.2066 75.0698 30.7871 77.1238 26.5645 77.1238Z" fill="black"/>
<path d="M38.8587 45C47.4997 42 48.9997 22 38.8587 18C33.4998 20 24.4999 33 38.8587 45Z" fill="#E9ECF4"/>
<path d="M85.7464 44C94.3874 41 95.8874 21 85.7464 17C80.3875 19 71.3876 32 85.7464 44Z" fill="#DADADD"/>
<path d="M128.746 44C137.387 41 138.887 21 128.746 17C123.387 19 114.388 32 128.746 44Z" fill="#E9ECF4"/>
</svg>
