<svg width="207" height="739" viewBox="0 0 207 739" fill="none" xmlns="http://www.w3.org/2000/svg">
<path d="M27.0649 6.62408C1.46486 15.4241 -0.935137 45.6241 1.06486 59.6241H19.0649C20.5649 39.6241 19.5649 22.624 50.0649 17.1241C74.4649 12.7241 82.8983 34.9574 84.0649 46.624V220.124C84.0649 242.524 86.0649 255.791 87.0649 259.624C102.065 300.124 147.565 310.624 160.065 310.124C172.565 309.624 186.565 334.624 188.065 355.624C189.265 372.424 176.898 388.624 170.565 394.624L177.565 404.124C171.065 407.457 162.465 412.124 180.065 404.124C202.065 394.124 204.565 368.624 205.565 346.124C206.565 323.624 177.065 285.124 144.565 287.124C118.565 288.724 106.667 260.833 103 246L101.065 59.6241C102.565 32.1241 99.5649 32.6241 89.0649 17.1241C78.5649 1.62408 59.0649 -4.37592 27.0649 6.62408Z" fill="#99A9D7" stroke="black"/>
<path d="M94.5645 496.624V450.624L111.064 447.624V492.124C112.264 512.924 130.564 518.457 139.564 518.624H189.564C197.564 521.424 195.564 529.791 193.564 533.624L130.064 582.624H185.064C198.664 582.624 196.398 591.624 193.564 596.124L127.564 645.124H164.564C189.364 651.124 195.564 674.957 195.564 686.124L198.064 737.624L179.564 735.124V678.624C179.164 668.224 166.064 662.624 159.564 661.124H101.064C91.0645 657.924 94.8978 649.124 98.0645 645.124L164.564 598.624H98.0645C91.6645 593.424 95.3979 585.791 98.0645 582.624L148.065 541.624L133.565 538.624C109.165 536.624 97.3979 509.791 94.5645 496.624Z" fill="#99A9D7" stroke="black"/>
</svg>
