<svg width="176" height="81" viewBox="0 0 176 81" fill="none" xmlns="http://www.w3.org/2000/svg">
<path d="M167.411 65.6782C168.139 65.7083 168.731 65.7364 169.375 66.0952C167.585 75.4388 159.755 76.7587 156.064 76.2507C155.791 75.1394 155.549 75.1821 154.774 74.3735C152.946 72.3528 154.774 69.5934 154.774 69.5934C154.774 69.5934 156.623 67.2794 158.204 68.268C158.204 68.268 160.817 63.9224 165.29 66.0952C165.958 65.7907 166.683 65.6482 167.411 65.6782Z" fill="#FE9F1E" stroke="black" stroke-miterlimit="10"/>
<path d="M164.959 67.7266C163.71 67.6614 159.794 69.3345 159.794 69.3345C159.794 68.4662 161.015 67.2923 161.625 66.8139C161.382 66.0837 162.294 63.6562 162.78 62.5337C162.78 62.5337 164.846 62.7292 163.895 63.229C162.945 63.7287 163.048 66.9336 163.048 66.9336C163.048 66.9336 166.209 67.7918 164.959 67.7266Z" fill="#847F29" stroke="black" stroke-miterlimit="10"/>
<path d="M15.4953 24.6622C15.6103 24.6781 15.7158 24.7377 15.7919 24.8298C15.868 24.9218 15.9095 25.04 15.9085 25.1619C15.7483 25.8153 15.6617 26.4862 15.6502 27.1609V27.5303C15.5978 28.3091 15.813 29.0818 16.2566 29.7079C16.7002 30.3339 17.3428 30.7717 18.0674 30.9415C21.1527 31.3036 23.0189 31.778 23.6663 32.3647C24.3986 32.7805 25.042 33.3499 25.5567 34.0377C26.0544 34.8596 26.3589 35.7943 26.4451 36.7646C26.4536 36.7625 26.4625 36.7627 26.4709 36.7652C26.4794 36.7678 26.487 36.7725 26.4932 36.7791C26.4994 36.7856 26.504 36.7936 26.5064 36.8025C26.5088 36.8114 26.509 36.8208 26.507 36.8297V37.8183C26.379 38.1327 26.2988 38.4664 26.2695 38.807C26.1613 38.9615 26.0034 39.0696 25.8253 39.1111C25.6511 39.0419 25.5051 38.9114 25.4121 38.7418C25.4878 38.0175 25.5257 37.5612 25.5257 37.3729C25.5257 34.4759 23.7179 32.7594 20.1024 32.2235C18.9071 32.1651 17.7299 31.8933 16.6212 31.4195C16.0032 30.9717 15.5017 30.3682 15.1625 29.6642C14.8233 28.9602 14.6571 28.178 14.6792 27.389C14.8169 25.5711 15.0889 24.6622 15.4953 24.6622ZM19.6273 21.5551H24.0485C24.3997 21.6783 24.5753 21.8629 24.5753 22.1092V22.2287C24.5753 22.2287 24.472 22.3808 24.2758 22.5437H20.0715C19.3218 22.5447 18.582 22.724 17.9076 23.0683C17.2331 23.4126 16.6415 23.9129 16.177 24.5318H16.0014C15.9452 24.5411 15.8876 24.5363 15.8334 24.5177C15.7793 24.4992 15.73 24.4674 15.6898 24.4251C15.6495 24.3827 15.6193 24.3309 15.6016 24.274C15.584 24.217 15.5794 24.1565 15.5882 24.0973C15.6846 23.5324 16.3905 22.8697 17.7059 22.1092C18.3009 21.889 18.9126 21.7218 19.5343 21.6095C19.5274 21.5965 19.5258 21.5812 19.5296 21.5669C19.5335 21.5527 19.5426 21.5406 19.555 21.5334C19.5673 21.5262 19.5818 21.5244 19.5954 21.5285C19.6089 21.5326 19.6204 21.5422 19.6273 21.5551ZM25.5257 39.285C25.582 39.2757 25.6395 39.2805 25.6937 39.2991C25.7479 39.3176 25.7971 39.3494 25.8374 39.3917C25.8776 39.4341 25.9078 39.4859 25.9255 39.5428C25.9431 39.5998 25.9477 39.6603 25.9389 39.7195V39.9042C25.3612 40.847 24.5527 41.6088 23.5985 42.1096C22.6442 42.6104 21.5793 42.8318 20.5156 42.7505H16.4146C15.9532 42.7505 15.6778 42.6274 15.5882 42.3812V42.2617C15.5882 41.9285 15.7845 41.7619 16.177 41.7619H21.1251C21.9646 41.7544 22.7887 41.5233 23.5203 41.0901C24.2519 40.657 24.8672 40.0359 25.3088 39.285H25.5257Z" fill="black"/>
<path d="M39.2543 21.7263H39.6055L48.9748 31.5037L58.3441 21.7263H58.5197C58.576 21.717 58.6335 21.7218 58.6877 21.7404C58.7419 21.7589 58.7911 21.7907 58.8314 21.833C58.8717 21.8754 58.9018 21.9272 58.9195 21.9841C58.9371 22.0411 58.9417 22.1016 58.9329 22.1608C58.9329 22.3998 58.4233 22.9973 57.4041 23.9534C51.9705 29.7474 49.2158 32.6445 49.1401 32.6445L49.0264 32.7096C48.7992 32.7096 47.501 31.3879 45.132 28.7443C42.9844 26.6843 40.9398 24.5086 39.0063 22.226C39.0683 21.9363 39.151 21.7697 39.2543 21.7263ZM39.4919 23.2146C39.666 23.2838 39.812 23.4144 39.9051 23.584V42.259C39.9158 42.3271 39.9109 42.397 39.8908 42.4628C39.8708 42.5286 39.8361 42.5884 39.7896 42.6373C39.7431 42.6861 39.6863 42.7226 39.6237 42.7438C39.5611 42.7649 39.4947 42.77 39.4299 42.7587C39.182 42.7587 39.0442 42.5921 39.0167 42.259V23.6057C39.1751 23.3522 39.3404 23.2255 39.5125 23.2255L39.4919 23.2146ZM58.592 23.2146C58.7091 23.2146 58.8675 23.3812 59.0672 23.7144V42.1395C59.019 42.5523 58.8434 42.7587 58.5404 42.7587C58.2373 42.7587 58.0996 42.5921 58.1272 42.259V23.7252C58.1547 23.3921 58.3165 23.2255 58.6127 23.2255L58.592 23.2146Z" fill="black"/>
<path d="M39.2543 24.2707H39.6055L48.9748 34.0482L58.3441 24.2707H58.5197C58.576 24.2614 58.6335 24.2663 58.6877 24.2848C58.7419 24.3034 58.7911 24.3351 58.8314 24.3775C58.8717 24.4198 58.9018 24.4716 58.9195 24.5286C58.9371 24.5855 58.9417 24.6461 58.9329 24.7053C58.9329 24.9443 58.4233 25.5418 57.4041 26.4978C51.9705 32.2919 49.2158 35.1889 49.1401 35.1889L49.0264 35.2541C48.7992 35.2541 47.501 33.9323 45.132 31.2888C42.9844 29.2287 40.9398 27.053 39.0063 24.7704C39.0683 24.4735 39.151 24.3069 39.2543 24.2707ZM39.4919 25.7591C39.666 25.8283 39.812 25.9588 39.9051 26.1284V44.7926C39.9158 44.8607 39.9109 44.9306 39.8908 44.9964C39.8708 45.0622 39.8361 45.122 39.7896 45.1709C39.7431 45.2197 39.6863 45.2562 39.6237 45.2773C39.5611 45.2985 39.4947 45.3036 39.4299 45.2923C39.182 45.2923 39.0442 45.1257 39.0167 44.7926V26.1393C39.1751 25.8858 39.3404 25.7591 39.5125 25.7591H39.4919ZM58.592 25.7591C58.7091 25.7591 58.8675 25.9256 59.0672 26.2588V44.673C59.019 45.0859 58.8434 45.2923 58.5404 45.2923C58.2373 45.2923 58.0996 45.1257 58.1272 44.7926V26.2588C58.1547 25.9256 58.3165 25.7591 58.6127 25.7591H58.592Z" fill="black"/>
<path d="M65.3482 21.7288C65.5272 21.7288 65.6856 21.8953 65.8234 22.2285C65.7821 25.0603 65.7614 27.1679 65.7614 28.5513V42.4462C65.7218 42.543 65.6551 42.625 65.5703 42.6813C65.4855 42.7375 65.3864 42.7654 65.2862 42.7612C65.1209 42.7178 64.9625 42.5331 64.811 42.2071V22.2394C64.853 22.1247 64.9168 22.0203 64.9985 21.9324C65.0802 21.8446 65.1781 21.7753 65.2862 21.7288H65.3482ZM66.8254 21.6636H71.2776C71.7147 21.8267 72.1692 21.9325 72.6308 21.9786C73.9355 22.3769 75.0449 23.287 75.7298 24.5208C76.0555 25.3518 76.2543 26.2318 76.3186 27.1281V27.378C76.2794 28.5731 75.9215 29.7326 75.2856 30.724C74.7429 31.376 74.072 31.8963 73.3194 32.2489C72.5667 32.6016 71.7503 32.7781 70.9264 32.7664H66.877C66.5258 32.7013 66.3502 32.5347 66.3502 32.2667C66.416 32.0835 66.5401 31.93 66.7014 31.8322H70.8334C71.8409 31.9498 72.8543 31.6739 73.6809 31.057C74.5075 30.44 75.0897 29.525 75.3166 28.4861C75.3919 28.049 75.4231 27.6047 75.4096 27.1607C75.4795 26.1964 75.2296 25.2363 74.7022 24.444C74.1748 23.6517 73.4027 23.0761 72.5172 22.8151C71.9389 22.664 71.3465 22.5802 70.7508 22.5653H66.8254C66.7606 22.5766 66.6941 22.5714 66.6316 22.5503C66.569 22.5292 66.5121 22.4927 66.4657 22.4438C66.4192 22.395 66.3845 22.3352 66.3644 22.2694C66.3443 22.2036 66.3395 22.1337 66.3502 22.0655V22.0547C66.4707 21.8695 66.6343 21.7199 66.8254 21.6201V21.6636Z" fill="black"/>
<path d="M82.7429 21.7271H83.0941C83.1736 21.762 83.2399 21.8235 83.2828 21.9021C83.3257 21.9806 83.3429 22.0718 83.3317 22.1616V41.8252H94.3538C94.4186 41.8139 94.4851 41.819 94.5476 41.8402C94.6102 41.8613 94.6671 41.8978 94.7135 41.9466C94.76 41.9955 94.7947 42.0553 94.8148 42.1211C94.8349 42.1869 94.8397 42.2568 94.829 42.3249C94.7963 42.4467 94.7276 42.5544 94.6329 42.6325C94.5382 42.7106 94.4224 42.7551 94.3022 42.7595H83.0321C82.7498 42.7595 82.5329 42.5531 82.3813 42.1403V22.1725C82.5535 21.8755 82.674 21.7271 82.7429 21.7271Z" fill="black"/>
<path d="M100.987 21.5537H113.723C114.04 21.6986 114.199 21.8832 114.199 22.1078C114.199 22.3323 114.04 22.4771 113.723 22.5423H100.987C100.922 22.5536 100.855 22.5485 100.793 22.5274C100.73 22.5063 100.673 22.4697 100.627 22.4209C100.58 22.372 100.546 22.3122 100.526 22.2464C100.506 22.1806 100.501 22.1108 100.511 22.0426C100.511 21.876 100.67 21.713 100.987 21.5537ZM101.162 31.6571H113.558C113.689 31.6463 113.82 31.6754 113.935 31.7409C114.051 31.8065 114.146 31.9056 114.209 32.0265V32.0917C114.209 32.461 113.934 32.6457 113.383 32.6457H101.338C100.787 32.6457 100.511 32.461 100.511 32.0917V32.0265C100.575 31.9056 100.67 31.8065 100.785 31.7409C100.9 31.6754 101.031 31.6463 101.162 31.6571ZM101.049 41.7605H113.631C113.982 41.7605 114.157 41.9271 114.157 42.2602C114.157 42.5934 113.923 42.76 113.455 42.76H101.235C100.766 42.76 100.532 42.5753 100.532 42.2059C100.548 42.0771 100.61 41.9597 100.707 41.8786C100.803 41.7975 100.926 41.759 101.049 41.7714V41.7605Z" fill="black"/>
<path d="M100.987 23.4663H113.723C114.04 23.6112 114.199 23.7958 114.199 24.0204C114.199 24.2449 114.04 24.3897 113.723 24.4549H100.987C100.922 24.4662 100.855 24.4611 100.793 24.44C100.73 24.4189 100.673 24.3823 100.627 24.3335C100.58 24.2846 100.546 24.2248 100.526 24.159C100.506 24.0932 100.501 24.0234 100.511 23.9552C100.511 23.7814 100.67 23.6184 100.987 23.4663ZM101.162 33.5697H113.558C113.689 33.5589 113.82 33.588 113.935 33.6535C114.051 33.719 114.146 33.8182 114.209 33.9391V34.0043C114.209 34.3736 113.934 34.5583 113.383 34.5583H101.338C100.787 34.5583 100.511 34.3736 100.511 34.0043V33.9391C100.575 33.8182 100.67 33.719 100.785 33.6535C100.9 33.588 101.031 33.5589 101.162 33.5697ZM101.049 43.6731H113.631C113.982 43.6731 114.157 43.8397 114.157 44.1728C114.157 44.506 113.923 44.6726 113.455 44.6726H101.235C100.766 44.6726 100.532 44.4879 100.532 44.1185C100.545 43.9877 100.607 43.8676 100.703 43.7843C100.8 43.7009 100.924 43.6609 101.049 43.6731Z" fill="black"/>
<path d="M15.4944 54.3188C15.6094 54.3347 15.7149 54.3943 15.791 54.4864C15.8671 54.5784 15.9086 54.6966 15.9076 54.8186C15.7302 55.4843 15.6297 56.17 15.608 56.861V57.2303C15.5556 58.0092 15.7707 58.7819 16.2144 59.4079C16.658 60.034 17.3006 60.4718 18.0252 60.6416C21.1104 61.0037 22.9767 61.4781 23.6241 62.0648C24.3564 62.4806 24.9998 63.05 25.5145 63.7378C26.0122 64.5597 26.3167 65.4944 26.4028 66.4646C26.4114 66.4625 26.4203 66.4628 26.4287 66.4653C26.4371 66.4678 26.4448 66.4726 26.451 66.4791C26.4572 66.4856 26.4617 66.4937 26.4642 66.5026C26.4666 66.5114 26.4668 66.5208 26.4648 66.5298V67.5184C26.3368 67.8328 26.2566 68.1664 26.2272 68.507C26.1188 68.6351 25.9738 68.7228 25.814 68.7569C25.6398 68.6877 25.4938 68.5572 25.4008 68.3875C25.4766 67.6633 25.5145 67.207 25.5145 67.0187C25.5145 64.1216 23.7067 62.4052 20.0912 61.8692C18.8958 61.8109 17.7186 61.539 16.61 61.0653C15.992 60.6175 15.4905 60.014 15.1513 59.3099C14.812 58.6059 14.6459 57.8237 14.668 57.0348C14.8126 55.2241 15.088 54.3188 15.4944 54.3188ZM19.6264 51.1792H24.0476C24.3988 51.3023 24.5744 51.487 24.5744 51.7332V51.8527C24.5744 51.8527 24.4711 52.0048 24.2749 52.1678H20.0705C19.3209 52.1687 18.5811 52.348 17.9067 52.6923C17.2322 53.0366 16.6406 53.537 16.1761 54.1559H16.0005C15.9443 54.1651 15.8867 54.1603 15.8325 54.1417C15.7784 54.1232 15.7291 54.0914 15.6889 54.0491C15.6486 54.0067 15.6184 53.9549 15.6007 53.898C15.5831 53.841 15.5785 53.7805 15.5873 53.7213C15.6837 53.1564 16.3896 52.4937 17.705 51.7332C18.3 51.513 18.9117 51.3458 19.5334 51.2335C19.5265 51.2205 19.5249 51.2052 19.5287 51.191C19.5326 51.1767 19.5417 51.1646 19.554 51.1574C19.5664 51.1502 19.5809 51.1485 19.5945 51.1525C19.608 51.1566 19.6195 51.1662 19.6264 51.1792ZM25.5248 68.909C25.5811 68.8997 25.6386 68.9045 25.6928 68.9231C25.747 68.9416 25.7962 68.9734 25.8365 69.0158C25.8767 69.0581 25.9069 69.1099 25.9246 69.1669C25.9422 69.2238 25.9468 69.2844 25.938 69.3435V69.5282C25.3603 70.471 24.5518 71.2328 23.5976 71.7336C22.6433 72.2345 21.5784 72.4559 20.5147 72.3746H16.4137C15.9523 72.3746 15.6769 72.2514 15.5873 72.0052V71.8857C15.5873 71.5525 15.7836 71.3859 16.1761 71.3859H21.1242C21.9637 71.3784 22.7878 71.1473 23.5194 70.7141C24.251 70.281 24.8663 69.66 25.3079 68.909H25.5248Z" fill="black"/>
<path d="M41.6607 52.1455H42.3528C44.1385 52.2551 45.8657 52.8544 47.3629 53.8837L47.4765 54.1988C47.4765 54.445 47.3181 54.5899 47.0013 54.6333C45.5322 53.6607 43.8404 53.1239 42.1049 53.0798H41.8673C38.6857 53.0798 36.1514 54.6913 34.2644 57.9142C33.5972 59.2755 33.2434 60.7826 33.2314 62.3141C33.231 63.9223 33.6338 65.5023 34.3991 66.8946C35.1645 68.287 36.2653 69.4425 37.5907 70.2447C38.822 71.0225 40.2248 71.4494 41.6607 71.4832H42.2495C43.9453 71.433 45.5957 70.8957 47.022 69.9297H47.084C47.084 69.9297 47.2286 70.0383 47.3835 70.2447V70.3642C47.3835 70.8712 46.2817 71.4506 44.0779 72.1024C43.4243 72.2838 42.7498 72.3679 42.0739 72.3523H41.9603C38.3517 72.3523 35.5213 70.5417 33.469 66.9204C32.7999 65.5132 32.4465 63.9634 32.436 62.3901V62.2055C32.436 58.5842 34.0682 55.6871 37.3325 53.5144C38.6658 52.7386 40.1416 52.2719 41.6607 52.1455Z" fill="black"/>
<path d="M31.3508 22.2485H31.6504C31.7469 22.2973 31.8277 22.3747 31.8827 22.4713C31.9378 22.5678 31.9648 22.6792 31.9603 22.7917L32.4664 44.7585C32.4758 44.8693 32.4545 44.9806 32.405 45.0789C32.3555 45.1772 32.28 45.2584 32.1875 45.3125H31.888C31.8191 45.3125 31.6986 45.1568 31.5264 44.8454L30.9893 22.8786C30.9886 22.7488 31.022 22.6213 31.0858 22.5101C31.1496 22.399 31.2413 22.3085 31.3508 22.2485Z" fill="black"/>
<path d="M33.3655 22.1953H33.665C33.7615 22.2441 33.8423 22.3215 33.8974 22.4181C33.9525 22.5146 33.9794 22.626 33.9749 22.7385L34.4811 44.7052C34.4905 44.8161 34.4691 44.9274 34.4196 45.0257C34.3701 45.124 34.2946 45.2052 34.2022 45.2593H33.9026C33.8338 45.2593 33.7132 45.1036 33.5411 44.7922L33.0556 22.8146C33.0516 22.6919 33.0781 22.5703 33.1324 22.4617C33.1868 22.3531 33.2671 22.2613 33.3655 22.1953Z" fill="black"/>
<path d="M53.8922 51.4307H54.1918C54.2864 51.481 54.365 51.5591 54.4182 51.6555C54.4714 51.752 54.4968 51.8625 54.4914 51.9739V73.9515C54.4968 74.0628 54.4714 74.1734 54.4182 74.2698C54.365 74.3662 54.2864 74.4443 54.1918 74.4946H53.8922C53.8234 74.4946 53.7063 74.3353 53.541 74.0166V52.039C53.5431 51.914 53.5767 51.7918 53.6384 51.6849C53.7001 51.578 53.7877 51.4903 53.8922 51.4307Z" fill="black"/>
<path d="M55.9069 51.4307H56.2065C56.301 51.481 56.3797 51.5591 56.4328 51.6555C56.486 51.752 56.5114 51.8625 56.506 51.9739V73.9515C56.5114 74.0628 56.486 74.1734 56.4328 74.2698C56.3797 74.3662 56.301 74.4443 56.2065 74.4946H55.9069C55.838 74.4946 55.7209 74.3353 55.5557 74.0166V52.039C55.5577 51.914 55.5914 51.7918 55.6531 51.6849C55.7148 51.578 55.8024 51.4903 55.9069 51.4307Z" fill="black"/>
<path d="M61.2571 51.1797H73.994C74.3108 51.3245 74.4692 51.5092 74.4692 51.7337C74.4692 51.9583 74.3108 52.1031 73.994 52.1683H61.2571C61.1923 52.1796 61.1258 52.1745 61.0633 52.1533C61.0007 52.1322 60.9439 52.0957 60.8974 52.0469C60.8509 51.998 60.8162 51.9382 60.7961 51.8724C60.7761 51.8066 60.7712 51.7367 60.7819 51.6686C60.7819 51.4947 60.9403 51.3318 61.2571 51.1797ZM61.4327 61.2831H73.8287C73.9595 61.2723 74.0904 61.3014 74.2059 61.3669C74.3213 61.4324 74.4163 61.5316 74.4795 61.6525V61.7176C74.4795 62.087 74.204 62.2717 73.6531 62.2717H61.6083C61.0574 62.2717 60.7819 62.087 60.7819 61.7176V61.6525C60.8451 61.5316 60.9401 61.4324 61.0556 61.3669C61.171 61.3014 61.3019 61.2723 61.4327 61.2831ZM61.3191 71.3865H73.932C74.2832 71.3865 74.4589 71.5531 74.4589 71.8862C74.4589 72.2194 74.2247 72.386 73.7564 72.386H61.4947C61.0264 72.386 60.7923 72.2013 60.7923 71.8319C60.7987 71.7661 60.8175 71.7023 60.8475 71.6443C60.8775 71.5862 60.9182 71.5349 60.9672 71.4935C61.0162 71.4521 61.0726 71.4213 61.133 71.4029C61.1934 71.3845 61.2566 71.3789 61.3191 71.3865Z" fill="black"/>
<path d="M61.2571 53.2969H73.994C74.3108 53.4417 74.4692 53.6264 74.4692 53.8509C74.4692 54.0755 74.3108 54.2203 73.994 54.2855H61.2571C61.1923 54.2968 61.1258 54.2917 61.0633 54.2705C61.0007 54.2494 60.9439 54.2129 60.8974 54.1641C60.8509 54.1152 60.8162 54.0554 60.7961 53.9896C60.7761 53.9238 60.7712 53.8539 60.7819 53.7857C60.7819 53.6119 60.9403 53.449 61.2571 53.2969ZM61.4327 63.4003H73.8287C73.9595 63.3895 74.0904 63.4186 74.2059 63.4841C74.3213 63.5496 74.4163 63.6488 74.4795 63.7696V63.8348C74.4795 64.2042 74.204 64.3889 73.6531 64.3889H61.6083C61.0574 64.3889 60.7819 64.2042 60.7819 63.8348V63.7696C60.8451 63.6488 60.9401 63.5496 61.0556 63.4841C61.171 63.4186 61.3019 63.3895 61.4327 63.4003ZM61.3191 73.5037H73.932C74.2832 73.5037 74.4589 73.6703 74.4589 74.0034C74.4589 74.3366 74.2247 74.5031 73.7564 74.5031H61.4947C61.0264 74.5031 60.7923 74.3185 60.7923 73.9491C60.7987 73.8833 60.8175 73.8195 60.8475 73.7614C60.8775 73.7033 60.9182 73.6521 60.9672 73.6107C61.0162 73.5692 61.0726 73.5385 61.133 73.5201C61.1934 73.5017 61.2566 73.4961 61.3191 73.5037Z" fill="black"/>
<path d="M80.0469 51.2998C80.8103 51.9458 81.4665 52.7204 81.989 53.5921L95.7278 71.7021C95.7694 71.7781 95.7908 71.8644 95.7898 71.952C95.6659 72.2453 95.8518 72.2453 95.6659 72.2453C95.4799 72.2453 94.9324 71.4849 93.9821 70.1377L80.4601 53.1032V72.0715C80.4205 72.1684 80.3539 72.2504 80.269 72.3066C80.1842 72.3629 80.0852 72.3908 79.9849 72.3866C79.8197 72.3431 79.6613 72.1584 79.5098 71.8325V51.8647C79.5468 51.7421 79.6083 51.6291 79.6903 51.5336C79.7723 51.438 79.8727 51.362 79.9849 51.3107L80.0469 51.2998ZM95.4283 51.365C95.5328 51.3925 95.625 51.4575 95.6891 51.5486C95.7532 51.6398 95.7851 51.7515 95.7795 51.8647V69.5294C95.7795 69.5294 95.6762 69.6815 95.4799 69.8444H95.3663C95.0495 69.8444 94.8911 69.638 94.8911 69.2252V51.9299C94.9462 51.5533 95.1253 51.365 95.4283 51.365Z" fill="black"/>
<path d="M110.665 52.1455H111.367C113.153 52.2551 114.88 52.8544 116.378 53.8837L116.491 54.1988C116.491 54.445 116.333 54.5899 116.016 54.6333C114.547 53.6607 112.855 53.1239 111.12 53.0798H110.882C107.7 53.0798 105.166 54.6913 103.279 57.9142C102.612 59.2755 102.258 60.7826 102.246 62.3141C102.246 63.9223 102.648 65.5023 103.414 66.8946C104.179 68.287 105.28 69.4425 106.605 70.2447C107.837 71.0225 109.239 71.4494 110.675 71.4832H111.264C112.96 71.433 114.61 70.8957 116.037 69.9297H116.099C116.099 69.9297 116.243 70.0383 116.398 70.2447V70.3642C116.398 70.8712 115.296 71.4506 113.093 72.1024C112.439 72.2838 111.764 72.3679 111.089 72.3523H110.975C107.366 72.3523 104.536 70.5417 102.484 66.9204C101.815 65.5132 101.461 63.9634 101.451 62.3901V62.2055C101.451 58.5842 103.083 55.6871 106.347 53.5144C107.677 52.7401 109.149 52.2734 110.665 52.1455Z" fill="black"/>
<path d="M15.4944 27.1594C15.6094 27.1753 15.7149 27.2349 15.791 27.3269C15.8671 27.419 15.9086 27.5371 15.9076 27.6591C15.7302 28.3248 15.6297 29.0106 15.608 29.7015V30.0709C15.5556 30.8497 15.7707 31.6225 16.2144 32.2485C16.658 32.8746 17.3006 33.3123 18.0252 33.4822C21.1104 33.8443 22.9767 34.3187 23.6241 34.9053C24.3564 35.3212 24.9998 35.8906 25.5145 36.5784C26.0122 37.4003 26.3167 38.335 26.4028 39.3052C26.4114 39.3031 26.4203 39.3034 26.4287 39.3059C26.4371 39.3084 26.4448 39.3132 26.451 39.3197C26.4572 39.3262 26.4617 39.3343 26.4642 39.3432C26.4666 39.352 26.4668 39.3614 26.4648 39.3704V40.359C26.3368 40.6734 26.2566 41.007 26.2272 41.3476C26.1188 41.4757 25.9738 41.5634 25.814 41.5975C25.6398 41.5283 25.4938 41.3977 25.4008 41.2281C25.4766 40.5038 25.5145 40.0476 25.5145 39.8593C25.5145 36.9622 23.7067 35.2457 20.0912 34.7098C18.8958 34.6514 17.7186 34.3796 16.61 33.9059C15.992 33.458 15.4905 32.8546 15.1513 32.1505C14.812 31.4465 14.6459 30.6643 14.668 29.8754C14.8126 28.0647 15.088 27.1594 15.4944 27.1594ZM19.6264 24.0849H24.0476C24.3988 24.208 24.5744 24.3927 24.5744 24.639V24.7585C24.5744 24.7585 24.4711 24.9106 24.2749 25.0735H20.0705C19.3209 25.0745 18.5811 25.2538 17.9067 25.5981C17.2322 25.9424 16.6406 26.4427 16.1761 27.0616H16.0005C15.9443 27.0709 15.8867 27.0661 15.8325 27.0475C15.7784 27.029 15.7291 26.9972 15.6889 26.9548C15.6486 26.9125 15.6184 26.8607 15.6007 26.8037C15.5831 26.7468 15.5785 26.6862 15.5873 26.6271C15.6837 26.0621 16.3896 25.3994 17.705 24.639C18.3 24.4188 18.9117 24.2516 19.5334 24.1392C19.5265 24.1263 19.5249 24.111 19.5287 24.0967C19.5326 24.0825 19.5417 24.0704 19.554 24.0632C19.5664 24.056 19.5809 24.0542 19.5945 24.0583C19.608 24.0624 19.6195 24.072 19.6264 24.0849ZM25.5248 41.8148C25.5811 41.8055 25.6386 41.8103 25.6928 41.8289C25.747 41.8474 25.7962 41.8792 25.8365 41.9215C25.8767 41.9639 25.9069 42.0157 25.9246 42.0726C25.9422 42.1296 25.9468 42.1901 25.938 42.2493V42.434C25.3603 43.3768 24.5518 44.1386 23.5976 44.6394C22.6433 45.1402 21.5784 45.3616 20.5147 45.2803H16.4137C15.9523 45.2803 15.6769 45.1572 15.5873 44.911V44.7914C15.5873 44.4583 15.7836 44.2917 16.1761 44.2917H21.1242C21.9637 44.2842 22.7878 44.0531 23.5194 43.6199C24.251 43.1868 24.8663 42.5657 25.3079 41.8148H25.5248Z" fill="black"/>
<path d="M15.4944 56.396C15.6094 56.4119 15.7149 56.4715 15.791 56.5635C15.8671 56.6556 15.9086 56.7737 15.9076 56.8957C15.7302 57.5614 15.6297 58.2471 15.608 58.9381V59.3075C15.5556 60.0863 15.7707 60.859 16.2144 61.4851C16.658 62.1112 17.3006 62.5489 18.0252 62.7187C21.1104 63.0809 22.9767 63.5553 23.6241 64.1419C24.3564 64.5577 24.9998 65.1272 25.5145 65.8149C26.0122 66.6368 26.3167 67.5716 26.4028 68.5418C26.4114 68.5397 26.4203 68.5399 26.4287 68.5425C26.4371 68.545 26.4448 68.5498 26.451 68.5563C26.4572 68.5628 26.4617 68.5709 26.4642 68.5797C26.4666 68.5886 26.4668 68.598 26.4648 68.607V69.5956C26.3368 69.91 26.2566 70.2436 26.2272 70.5842C26.1188 70.7123 25.9738 70.7999 25.814 70.834C25.6398 70.7648 25.4938 70.6343 25.4008 70.4647C25.4766 69.7404 25.5145 69.2841 25.5145 69.0958C25.5145 66.1988 23.7067 64.4823 20.0912 63.9464C18.8958 63.888 17.7186 63.6162 16.61 63.1424C15.992 62.6946 15.4905 62.0911 15.1513 61.3871C14.812 60.6831 14.6459 59.9009 14.668 59.1119C14.8126 57.3013 15.088 56.396 15.4944 56.396ZM19.6264 53.2998H24.0476C24.3988 53.4229 24.5744 53.6076 24.5744 53.8538V53.9733C24.5744 53.9733 24.4711 54.1254 24.2749 54.2884H20.0705C19.3209 54.2893 18.5811 54.4686 17.9067 54.8129C17.2322 55.1572 16.6406 55.6576 16.1761 56.2765H16.0005C15.9443 56.2857 15.8867 56.2809 15.8325 56.2624C15.7784 56.2438 15.7291 56.212 15.6889 56.1697C15.6486 56.1273 15.6184 56.0756 15.6007 56.0186C15.5831 55.9616 15.5785 55.9011 15.5873 55.8419C15.6837 55.277 16.3896 54.6143 17.705 53.8538C18.3 53.6336 18.9117 53.4665 19.5334 53.3541C19.5265 53.3411 19.5249 53.3258 19.5287 53.3116C19.5326 53.2973 19.5417 53.2852 19.554 53.278C19.5664 53.2708 19.5809 53.2691 19.5945 53.2731C19.608 53.2772 19.6195 53.2868 19.6264 53.2998ZM25.5248 71.0296C25.5811 71.0203 25.6386 71.0252 25.6928 71.0437C25.747 71.0623 25.7962 71.094 25.8365 71.1364C25.8767 71.1787 25.9069 71.2305 25.9246 71.2875C25.9422 71.3444 25.9468 71.405 25.938 71.4642V71.6488C25.3603 72.5916 24.5518 73.3534 23.5976 73.8543C22.6433 74.3551 21.5784 74.5765 20.5147 74.4952H16.4137C15.9523 74.4952 15.6769 74.3721 15.5873 74.1258V74.0063C15.5873 73.6731 15.7836 73.5066 16.1761 73.5066H21.1242C21.9637 73.499 22.7878 73.2679 23.5194 72.8348C24.251 72.4016 24.8663 71.7806 25.3079 71.0296H25.5248Z" fill="black"/>
<path d="M41.6607 54.3193H42.3528C44.1385 54.429 45.8657 55.0282 47.3629 56.0576L47.4765 56.3726C47.4765 56.6189 47.3181 56.7637 47.0013 56.8072C45.5322 55.8345 43.8404 55.2977 42.1049 55.2536H41.8673C38.6857 55.2536 36.1514 56.8651 34.2644 60.0881C33.5972 61.4493 33.2434 62.9565 33.2314 64.4879C33.231 66.0962 33.6338 67.6761 34.3991 69.0685C35.1645 70.4608 36.2653 71.6163 37.5907 72.4185C38.822 73.1963 40.2248 73.6232 41.6607 73.657H42.2495C43.9453 73.6068 45.5957 73.0696 47.022 72.1035H47.084C47.084 72.1035 47.2286 72.2121 47.3835 72.4185V72.538C47.3835 73.045 46.2817 73.6244 44.0779 74.2763C43.4243 74.4577 42.7498 74.5418 42.0739 74.5261H41.9603C38.3517 74.5261 35.5213 72.7155 33.469 69.0942C32.7999 67.6871 32.4465 66.1372 32.436 64.564V64.3793C32.436 60.758 34.0682 57.861 37.3325 55.6882C38.6658 54.9124 40.1416 54.4457 41.6607 54.3193Z" fill="black"/>
<path d="M110.665 54.3193H111.367C113.153 54.429 114.88 55.0282 116.378 56.0576L116.491 56.3726C116.491 56.6189 116.333 56.7637 116.016 56.8072C114.547 55.8345 112.855 55.2977 111.12 55.2536H110.882C107.7 55.2536 105.166 56.8651 103.279 60.0881C102.612 61.4493 102.258 62.9565 102.246 64.4879C102.246 66.0962 102.648 67.6761 103.414 69.0685C104.179 70.4608 105.28 71.6163 106.605 72.4185C107.837 73.1963 109.239 73.6232 110.675 73.657H111.264C112.96 73.6068 114.61 73.0696 116.037 72.1035H116.099C116.099 72.1035 116.243 72.2121 116.398 72.4185V72.538C116.398 73.045 115.296 73.6244 113.093 74.2763C112.439 74.4577 111.764 74.5418 111.089 74.5261H110.975C107.366 74.5261 104.536 72.7155 102.484 69.0942C101.815 67.6871 101.461 66.1372 101.451 64.564V64.3793C101.451 60.758 103.083 57.861 106.347 55.6882C107.677 54.9139 109.149 54.4472 110.665 54.3193Z" fill="black"/>
<path d="M123.019 51.1797H135.756C136.072 51.3245 136.231 51.5092 136.231 51.7337C136.231 51.9583 136.072 52.1031 135.756 52.1683H123.019C122.954 52.1796 122.888 52.1745 122.825 52.1533C122.762 52.1322 122.706 52.0957 122.659 52.0469C122.613 51.998 122.578 51.9382 122.558 51.8724C122.538 51.8066 122.533 51.7367 122.544 51.6686C122.544 51.4947 122.702 51.3318 123.019 51.1797ZM123.194 61.2831H135.59C135.721 61.2723 135.852 61.3014 135.968 61.3669C136.083 61.4324 136.178 61.5316 136.241 61.6525V61.7176C136.241 62.087 135.966 62.2717 135.415 62.2717H123.37C122.819 62.2717 122.544 62.087 122.544 61.7176V61.6525C122.607 61.5316 122.702 61.4324 122.817 61.3669C122.933 61.3014 123.064 61.2723 123.194 61.2831ZM123.081 71.3865H135.694C136.045 71.3865 136.221 71.5531 136.221 71.8862C136.221 72.2194 135.986 72.386 135.518 72.386H123.256C122.788 72.386 122.554 72.2013 122.554 71.8319C122.56 71.7661 122.579 71.7023 122.609 71.6443C122.639 71.5862 122.68 71.5349 122.729 71.4935C122.778 71.4521 122.834 71.4213 122.895 71.4029C122.955 71.3845 123.018 71.3789 123.081 71.3865Z" fill="black"/>
<path d="M123.019 53.2969H135.756C136.072 53.4417 136.231 53.6264 136.231 53.8509C136.231 54.0755 136.072 54.2203 135.756 54.2855H123.019C122.954 54.2968 122.888 54.2917 122.825 54.2705C122.762 54.2494 122.706 54.2129 122.659 54.1641C122.613 54.1152 122.578 54.0554 122.558 53.9896C122.538 53.9238 122.533 53.8539 122.544 53.7857C122.544 53.6119 122.702 53.449 123.019 53.2969ZM123.194 63.4003H135.59C135.721 63.3895 135.852 63.4186 135.968 63.4841C136.083 63.5496 136.178 63.6488 136.241 63.7696V63.8348C136.241 64.2042 135.966 64.3889 135.415 64.3889H123.37C122.819 64.3889 122.544 64.2042 122.544 63.8348V63.7696C122.607 63.6488 122.702 63.5496 122.817 63.4841C122.933 63.4186 123.064 63.3895 123.194 63.4003ZM123.081 73.5037H135.694C136.045 73.5037 136.221 73.6703 136.221 74.0034C136.221 74.3366 135.986 74.5031 135.518 74.5031H123.256C122.788 74.5031 122.554 74.3185 122.554 73.9491C122.56 73.8833 122.579 73.8195 122.609 73.7614C122.639 73.7033 122.68 73.6521 122.729 73.6107C122.778 73.5692 122.834 73.5385 122.895 73.5201C122.955 73.5017 123.018 73.4961 123.081 73.5037Z" fill="black"/>
<path d="M163.692 74.7544C169.174 71.4555 171.15 64.2473 168.107 58.6543C165.064 53.0614 158.153 51.2017 152.672 54.5005C147.19 57.7994 145.214 65.0076 148.257 70.6006C151.3 76.1935 158.211 78.0532 163.692 74.7544Z" stroke="black" stroke-miterlimit="10"/>
<path d="M84.53 24.2163H84.8812C84.9607 24.2513 85.027 24.3128 85.0699 24.3913C85.1128 24.4698 85.13 24.561 85.1188 24.6509V44.3579H96.1409C96.2057 44.3466 96.2722 44.3517 96.3348 44.3729C96.3973 44.394 96.4542 44.4305 96.5006 44.4794C96.5471 44.5282 96.5818 44.588 96.6019 44.6538C96.622 44.7196 96.6268 44.7895 96.6161 44.8577C96.5834 44.9794 96.5147 45.0871 96.42 45.1652C96.3253 45.2433 96.2095 45.2878 96.0893 45.2922H84.8192C84.5369 45.2922 84.32 45.0858 84.1685 44.673V24.7052C84.3269 24.3793 84.4474 24.2163 84.53 24.2163Z" fill="black"/>
<path d="M66.7522 24.2151C66.9312 24.2151 67.0896 24.3817 67.2273 24.7148C67.1722 27.5394 67.1447 29.6434 67.1447 31.0267V44.9759C67.1051 45.0728 67.0385 45.1548 66.9536 45.2111C66.8688 45.2673 66.7697 45.2952 66.6695 45.291C66.5042 45.2475 66.3458 45.0628 66.1943 44.7369V24.7691C66.2314 24.6465 66.2929 24.5336 66.3749 24.438C66.4568 24.3424 66.5573 24.2664 66.6695 24.2151H66.7522ZM68.1777 24.1499H72.6609C73.098 24.313 73.5525 24.4188 74.0141 24.465C75.3188 24.8633 76.4282 25.7733 77.1131 27.0071C77.4388 27.8381 77.6376 28.7181 77.702 29.6144V29.8643C77.6628 31.0595 77.3048 32.2189 76.669 33.2104C76.1252 33.8604 75.4539 34.3786 74.7013 34.7293C73.9487 35.0801 73.1328 35.2549 72.3097 35.2419H68.281C67.9298 35.1767 67.7542 35.0101 67.7542 34.7422C67.82 34.559 67.9441 34.4054 68.1054 34.3076H72.2374C73.2448 34.4253 74.2583 34.1494 75.0849 33.5325C75.9115 32.9155 76.4937 32.0005 76.7206 30.9615C76.7972 30.5537 76.8352 30.1388 76.8342 29.7231C76.9042 28.7587 76.6542 27.7987 76.1268 27.0064C75.5995 26.2141 74.8273 25.6385 73.9418 25.3775C73.3635 25.2264 72.7711 25.1426 72.1754 25.1276H68.1777C68.1129 25.1389 68.0464 25.1338 67.9839 25.1127C67.9213 25.0916 67.8644 25.0551 67.818 25.0062C67.7715 24.9574 67.7368 24.8975 67.7167 24.8318C67.6967 24.766 67.6918 24.6961 67.7025 24.6279V24.5627C67.8257 24.3856 67.989 24.2436 68.1777 24.1499Z" fill="black"/>
<path d="M82.1951 53.8516C82.9585 54.4975 83.6147 55.2721 84.1372 56.1438L97.8761 74.243C97.9177 74.319 97.9391 74.4053 97.938 74.4929C97.8072 74.7826 97.6488 74.9275 97.4629 74.9275C97.2769 74.9275 96.6847 74.2141 95.6861 72.7873L82.6393 55.655V74.6233C82.5997 74.7202 82.5331 74.8022 82.4482 74.8584C82.3634 74.9147 82.2644 74.9425 82.1641 74.9383C81.9989 74.8949 81.8405 74.7102 81.689 74.3843V54.4165C81.726 54.2938 81.7875 54.1809 81.8695 54.0853C81.9515 53.9898 82.0519 53.9138 82.1641 53.8624L82.1951 53.8516ZM97.5765 53.9167C97.6811 53.9443 97.7733 54.0092 97.8373 54.1004C97.9014 54.1915 97.9333 54.3033 97.9277 54.4165V72.0811C97.9277 72.0811 97.8244 72.2332 97.6282 72.3962H97.5145C97.1977 72.3962 97.0393 72.1898 97.0393 71.7769V54.4708C97.0807 54.1014 97.2597 53.9167 97.5765 53.9167Z" fill="black"/>
</svg>
